<svg width="300" height="125" xmlns="http://www.w3.org/2000/svg"><svg x="0" y="0" width="300" height="125" viewBox="0 0 300 125"><svg xmlns="http://www.w3.org/2000/svg" width="300" height="125" xmlns:xlink="http://www.w3.org/1999/xlink" viewBox="0 0 300 125"><defs><clipPath id="b"><rect x="75.86" y="71.09" width="1.17" height="1.63" fill="none"/></clipPath><clipPath id="c"><rect y="54.74" width="23.55" height="27.79" fill="none"/></clipPath><clipPath id="d"><rect x="57.88" y="43.3" width="19.15" height="26.15" fill="none"/></clipPath><clipPath id="e"><rect x="10.48" y="67.82" width="66.55" height="31.06" fill="none"/></clipPath><clipPath id="f"><rect x="75.86" y="71.09" width="1.17" height="1.63" fill="none"/></clipPath></defs><path d="M33.26,97.99s.08-.05.16-.06c-.08-.01-.15-.03-.22-.04-.04.04-.04.08.06.1h0Z" fill="#ca005d"/><path d="M28.04,72.47s-.1-.07-.13-.13l.04.16s.07,0,.1-.03h0Z" fill="#ca005d"/><path d="M8.33,63.07l-.06-.26" fill="#ca005d"/><path d="M45.24,65.61c-.09-.01-.14,0-.17.04l.24.23c0-.11-.01-.21-.06-.27Z" fill="#ca005d"/><path d="M65.73,36.28c.11.1.24.21.34.33" fill="#ca005d"/><path d="M22.86,43.82c0,.13.08-.06.1-.16-.06.06-.13.12-.2.19.03,0,.05-.01.1-.03h0Z" fill="#ca005d"/><path d="M58.53,43.54s.08,0,.11,0c-.04-.03-.06-.06-.1-.1v.1h0Z" fill="#ca005d"/><path d="M33.59,37.78c.13-.03.19.11.22,0-.16-.26.26.24.29.01-.12-.03.01-.26.2-.45-.21.06-.43.11-.63.17-.03.07-.06.15-.07.26Z" fill="#ca005d"/><path d="M24.51,42.41c-.06-.01-.05-.04-.04-.09-.06.05-.13.1-.18.15.11.02.22.04.22-.06h0Z" fill="#ca005d"/><path d="M11.75,62.77c-.06,0-.1,0-.13,0l.03.13s.08-.07.1-.13Z" fill="#ca005d"/><path d="M8.5,64.02v-.12s0-.06,0-.06" fill="#ca005d"/><path d="M14.48,65.03v.35s0,0,0,0l.17-.39s-.08.05-.17.03h0Z" fill="#ca005d"/><path d="M14.85,64.51s.01,0,.02,0l.03-.08s-.03.03-.05.06h0Z" fill="#ca005d"/><path d="M13.94,70.31c0-.24-.16-.23-.29-.2l.16.15s.09,0,.13.04h0Z" fill="#ca005d"/><path d="M11.52,68.08c.14-.04.15-.19.13-.33l-.15.33h.01s0,0,0,0Z" fill="#ca005d"/><path d="M13.51,69.98l.06.06c0-.11-.08-.24-.13-.12h.01s.06.03.06.07h0Z" fill="#ca005d"/><path d="M21.86,93.33s-.06-.08-.08,0c.06.04.11.05.19.04-.04-.03-.08-.04-.11-.06v.03Z" fill="#ca005d"/><path d="M12.12,56.77v.04s0-.03,0-.04h0Z" fill="#ca005d"/><path d="M73.74,77.66s-.01-.01-.02-.01c0,.01-.01.03-.02.04.01-.01.03-.03.04-.03h0Z" fill="#ca005d"/><path d="M68.68,39.43c.07.08.15.16.21.24.03-.07-.01-.14.11.02" fill="#ca005d"/><path d="M72.27,54.24s.04.04.05.06v-.09s-.04.01-.05.03Z" fill="#ca005d"/><path d="M75.02,74.5h-.02s-.01.02-.01.03l.03-.03Z" fill="#ca005d"/><g clip-path="url(#b)"><path d="M75.97,71.24s-.03.09-.04.14c.05-.04.05-.1.04-.14Z" fill="#ca005d"/></g><path d="M75.85,59.74h-.01s0,.01.01.01h0Z" fill="#ca005d"/><g clip-path="url(#c)"><path d="M17.04,56.08l-4.64.99-3.51,7.87c.15-.11.41.1.53-.05.16.02.15.19.13.37-.17-.04-.4-.36-.51-.09-.09-.03-.11-.11-.2-.15l-.26.59c.1-.08.12-.24.31-.24-.01.15-.08.35.28.38.06.34-.3.23-.24.57-.16-.25-.31,0-.57-.23l-.67,1.5-1.82.39-.15-.69c-.06-.08,0-.26-.12-.27.01-.04.03-.06.04-.08l-.05-.26c-.06,0-.12,0-.2-.03-.05-.22,0-.36-.06-.44.02-.02.08-.04.15-.04l-.68-3.18-.03.06c-.12-.07-.11-.27-.28-.3.13-.1.16.01.27.06l-.84-3.96-3.81.8v.02s-.02,0-.03-.01l-.2.05.29,1.38c.17.17.35.38.61.44-.1.22-.24.34-.42.45l.19.9c.18.24.52.45.57.45.22.06-.08.15,0,.29-.2.03-.32-.02-.42-.1l.13.64h.02v.07l.57,2.74c.2.02.11.31.12.51h-.01l.24,1.09s.02.01.04.01c0,.02-.01.03-.03.04l.48,2.25h.21c-.03.15,0,.23.14.22-.06.13-.2,0-.29.04l.08.37s.11-.04.2.04c.02.1-.07.21-.13.3l.8,3.75c.1,0,.21.01.31.01.03-.19-.47-.49-.06-.59-.52-.4.08-.4.17-.65h.22c.04.25-.13.27-.3.29-.15.22.42.34.13.37.15.2.31-.18.51.02,0,.1-.31.31-.01.29-.04.12-.15.13-.25.12.03.02.03.06.04.11.04.03.06.08.05.2.13-.01.36.08.29-.14.03.11.38.45.21.29-.17.02.08.2.14.23-.12.2-.27.08-.43-.01.01-.06.08-.07.08-.15-.35-.15-.33.15-.66-.02-.1.1-.2.21-.29.34l1.15,5.43,1.34-.28c-.11-.04.04-.23.12-.2-.25-.15-.4-.38-.64-.54,0-.2.19-.2.37-.21-.04.15.1.14.21.15-.19.31.18.42.2.74l1.35-.29c.02-.16-.02-.26.2-.4.03.08.15.22.24.3l.63-.13-.71-3.35c-.06,0-.12-.03-.13.04-.08-.02-.03-.08,0-.08-.14-.19.27-.1-.14-.29.06-.04.12-.04.19-.02l-1.25-5.9,1.92-.41,8.43,8.26,5.04-1.07-8.15-7.8c-.1.03-.21.13-.31.17-.14-.01-.04-.24-.21-.23.08-.07.15-.14.23-.21h0s-.06-.06-.06-.06h-.02l-1.92-1.85s-.05.02-.08.03c-.01.06.03.07.06.08-.18.09-.1-.34-.43-.24M19.54,75.93c-.03.13.06.15.06.08.1.04.13.16.14.29-.13-.03-.15.05-.15.14-.14-.18-.35.11-.51-.09.04-.27.22-.38.46-.43h0ZM19.41,77.55c.24-.09.05.24.29.15-.02.16-.19.15-.37.13.06-.06.08-.16.08-.29h0ZM16.25,76.53c.09.01.04.07,0,.07-.01.13.09.15.07.3-.18.1-.14.15-.37.06,0-.05.02-.08.03-.11-.17.04-.37,0-.27-.07-.06-.11-.11.02-.29-.08.18-.15.33-.11.52-.11.1-.09.29.03.32-.06h0ZM15.73,75.75c.05.12-.15.31-.15.14-.13.01-.17.13-.15.29-.37.01-.22-.4-.43-.31-.18-.02-.01-.24.01-.29.43.02.29.29.73.17ZM14.07,72.84c.13,0,.15.1.29.08.01-.06-.03-.07-.08-.08.08-.19.23.17.07.22-.04-.03-.27-.19-.29-.01-.11-.03.03-.08,0-.22ZM12.21,71.46c.24-.05.28.08.36.16-.05.08-.17.07-.15.22-.06-.04-.11-.08-.22-.08v-.3h0ZM14.73,57.36c.13.06.26.13.43.16-.2.18-.28.05-.52.13-.02-.16.06-.19.09-.29ZM11.96,65.52c.03.23-.08.32-.31.28.11-.09.02-.38.31-.28ZM3.93,76.18c.25.04.13.38-.15.29.04-.1.11-.18.15-.29ZM4.71,77.23c-.4-.11-.62.04-.8-.25.25-.28.83-.22.8.25ZM3.61,60.8c-.12.15-.18-.06-.37.06.04-.18-.13-.16-.06-.37.19.02.19-.15.3-.2.11.03.05.23.29.15.04.3-.28.33-.15.36h0ZM5.37,72.58c-.17-.08-.39-.11-.35-.38.19.06.33.11.44-.06.06.16.27.33.13.45.11-.09.19-.08.29.01,0,.16-.26.03-.37.06v-.29c-.06.05-.1.12-.14.21ZM4.38,69.1c.08-.18.03-.15.08-.44.11.04.06.24.29.15-.08.13-.1.34-.37.29ZM3.48,59.22c-.08.27-.33.36-.68.34,0-.34.31-.38.68-.34ZM3.25,63.13c.23.1.2,0,.36.09-.03.2-.2.24-.38.28v-.36s.01,0,.01,0ZM3.12,63.52c.2-.03.06.27.2.3-.05.21-.15-.08-.29-.01,0-.13.1-.15.08-.29h0ZM2.64,62.34c.09.02.04.08,0,.08.06.06.08.17.06.29-.15-.03-.19-.15-.28-.23.01-.1.22-.02.22-.14h0ZM2.64,63.92c.24-.26.26.24.29.23-.07.21-.24-.05-.36-.01-.13-.2.33-.13.08-.22ZM3.81,70.75c.06-.1.1.03.29-.06.04.03.1.36.14.15.11.04-.03.09,0,.22-.12-.07-.27-.17-.13-.3-.11.09-.19.08-.29,0ZM4.1,73.56c-.11-.03.07-.13-.07-.15.02-.13.13-.16.3-.13-.01.09.01.13.06.15-.01.09-.07.04-.07,0-.07,0-.06.09-.08.15-.06.01-.06-.03-.06-.07-.07-.02-.08.03-.08.06h0ZM2.71,66.26c.26-.05.27.11.51.09-.34.34.24.37-.16.5-.21-.02-.11-.31-.36-.31.13-.14,0-.09.01-.29h0ZM3.64,68.07h-.29c.09-.1.07-.16-.06-.16.13-.49-.08-.52-.27-.81.03-.1.19-.06.3-.07-.03.13.04.15.14.15-.25.36.18.43.19.89h0ZM3.74,70.37c-.13-.2.12.2.29.16,0,.2-.38.12-.36-.09.15.09.15.08.07-.08h0ZM3.61,68.96c-.34.09-.29.22-.43-.31.11.14.29-.1.44.09.01.12-.13.19,0,.22ZM3.77,70.11c-.08.2-.23-.11-.45-.01.04-.41.26-.03.45.01ZM2.46,64.88c.17.03.06.32.21.37-.01.14-.24.04-.23.2-.14-.03-.12-.2-.36-.15-.03-.31.29-.33.17-.36.01-.26.23.16.21-.06h0ZM2.91,69.5c-.06.06-.2.04-.23.15-.29-.28-.2-.48.03-.73.1.22.22.04.36.15-.06.38-.28.1-.16.43ZM2.94,69.68c.08.29-.18.21-.37.21.04-.15.2-.19.37-.21ZM2.37,68.1c.31-.04.37.13.35.38-.26,0-.43-.07-.35-.38ZM1.28,61.51c.1.04.29.38.36.23.09.13.06.27-.01.45-.06-.05-.13-.1-.15,0-.31-.83-.5-1.02-.75-1.63.51-.29.68.44.56.97h0ZM.41,60.57c-.1-.02-.02-.22-.14-.22.06-.26.49-.1.36.24-.06-.06-.2-.12-.22-.01h0,0ZM1.38,64.41c.02-.08.08-.04.08,0,.06.01.07-.03.08-.06.21.06-.17.1-.09.29-.15.03-.19-.06-.29-.09-.06-.15.5,0,.22-.14h0ZM2.3,70.31c-.15-.09.08-.42.31-.36,0,.06-.03.06-.08.06,0,.08.08.06.15.08-.13.15.05.15-.08.29-.1,0-.27-.26-.29-.08h0ZM2.98,72.63c-.18.14-.06-.15-.08-.38-.08.04-.11.12-.01.12-.15.24-.2-.2-.02-.24,0,0,0-.01-.01-.03.01-.03.03-.04.05-.04.01-.08.08-.04.12.03.08.04.15.07.2-.04.13.05-.01.47-.23.28.1.17-.2.27-.01.3ZM3.68,72.7c-.22-.09-.17-.01-.43-.01.11-.22-.02-.22.09-.51.13.14.22-.08.36.09-.09.22-.01.17-.02.44h0ZM4.35,74.98c.01-.08.07-.03.07,0,.15.03,0-.2-.06-.22.22-.08-.03-.21.22-.21-.05-.19-.33.13-.43-.09-.06-.29.23-.21.16-.5.4.1.34-.29.53-.42.19.34.39-.15.59.01-.12.2-.43.45-.75.34.06.06.14.48-.02.52.02.1.18.06.29.08-.05.46-.34.59-.6.49h0ZM5.15,77.34c.01-.13-.08-.15-.06-.29.24-.12.29.28.36.08.16.05-.07.32-.3.21ZM5.04,76.39c-.11-.03.03-.09,0-.21.15.16.21-.03.44.01.07.37-.44.09-.45.2ZM6.02,75.32c-.08-.01-.04-.07,0-.07-.06-.13-.29.18-.52.13.02-.13.13-.16.29-.14,0-.08-.08-.06-.14-.08.14-.14.13-.04.09-.29.1.08.18.08.22-.07.1.12.13.45.05.51h0ZM5.7,74.15v-.29c.26.08.23-.03.37.15-.02.08-.08.04-.08,0-.11.03-.06.23-.29.14h0ZM6.43,76.37c.03.23.33.21.35.45-.22-.05-.49-.28-.35-.45ZM6.16,73.14c.06-.06.2-.04.23-.14.21.19.18.24.13.59h-.36s.15-.2.01-.45h0ZM6.6,75.49c-.05-.2.11-.18.08-.36.13.18.12.05.29.15-.13.06-.13.26-.38.2ZM7.9,78.47c.15.04.15.11.06.22.06.01.07-.03.08-.06.26.12-.17.1-.09.29-.13,0-.15-.09-.29-.08-.01-.22.15-.26.24-.36h0ZM5.78,69.03c-.06-.05-.13-.09-.15,0-.23-.13.2-.19.09-.43.29.13.15.2.06.44h0ZM10.04,70.99c-.24.06-.04.13-.08.36-.33-.21.2-.71.54-.86.16.11-.1.18.06.22-.36-.04-.45.71-.52.27h0ZM11.01,72.33c-.14-.12-.1,0-.29-.01v-.21c.19-.01.32.03.29.22ZM10.98,71.46c-.08-.09-.19-.04-.07,0-.02.08-.15.04-.15.14-.1-.03-.05-.18-.06-.29.19-.04.29-.11.29.15ZM10.78,70.58c.03-.13-.06-.15-.06-.07-.1-.1-.01-.15.01-.36.08.08.26.09.43.08-.08.17-.2.3-.38.35h0ZM12.64,74.45c-.27.07-.23-.16-.36-.23.02-.11.22-.02.22-.14.16,0,.15.18.13.36h0ZM11.49,69.22c.01.12-.13.19,0,.22-.19.29-.43-.08-.57-.24.06-.15.51-.06.58.02ZM10.1,66.61c.24.36-.31.7.12.66-.04.1-.16.13-.29.13.07-.21-.25-.75.17-.8ZM9.99,67.92c.06.04.11.08.22.08-.06.06-.09.16-.09.29-.15-.15-.15.03-.29.06-.09.08.09-.22.16-.43h0ZM10.37,69.77c.19.07-.11.23-.01.44-.13-.01-.15.09-.3.06.04-.18-.13-.16-.06-.37.15-.13.31-.06.37-.13ZM9.68,68.21c-.01.08-.07.03-.07,0-.11.03.03.09,0,.21-.23.05-.13-.2-.36-.15.01-.14.24-.04.23-.2.1.03.11.13.21.15h0ZM9.33,67.68c-.06-.01-.06-.08-.14-.08-.07,0-.06.09-.08.14-.13-.02-.16-.13-.14-.29.13.01.16-.09.3-.06,0,.07-.1.05-.15.07-.04.18.34-.03.2.23h0ZM8.62,66.92c-.06-.15.37.11.15-.07.08-.2.31.03.44.01-.04.39-.36.02-.45.35.25.06.06.3-.22.07-.05-.17.34-.23.08-.36h0ZM9.1,68.18c.1.03.11.13.22.15.06.18-.34.37-.01.37-.18.25-.54.18-.73.05.13-.35.33-.24.53-.57h0ZM7.57,70.1c-.01.13-.26-.11-.36-.16-.06-.01-.06.03-.07.07-.19-.03.1-.13.01-.29.15-.04.15.41.29.15.26.03-.01.2.14.23h0ZM7.63,68.2h-.36c-.06-.31.45-.3.36,0ZM8.09,69.75c.13-.14,0-.09.01-.29h.29c-.01.2-.12.29-.31.29Z" fill="#ca005d"/></g><path d="M13.5,70.15s.08-.02.14-.04l-.08-.07s-.02.09-.06.11Z" fill="#ca005d"/><path d="M8.33,63.07l.03.13c.03-.06,0-.1-.03-.13Z" fill="#ca005d"/><path d="M10.79,72.79c0,.06.03.09.07.1.03-.03.04-.05.06-.06-.04-.02-.1-.03-.13-.03h0Z" fill="#ca005d"/><path d="M10.86,73.28c.03-.08.08-.11.18-.11,0,.03.04.06.05,0-.08-.03-.05-.15-.06-.25-.05-.04-.12-.03-.17-.04-.1.12-.17.29,0,.39h0Z" fill="#ca005d"/><path d="M16.16,76.53c-.08.01-.15.01-.22.01-.02.02-.04.04-.04.08.15.05.13.09.1.18.13-.04.24-.11.17-.27h0Z" fill="#ca005d"/><path d="M10.93,72.82s.06.01.08.01c-.01-.01-.04-.02-.08-.02h0Z" fill="#ca005d"/><path d="M10.23,70.2s0-.08-.01-.11c-.03-.02-.06-.03-.1-.02h0s.07.03.06.08c-.03-.02-.06-.02-.08-.01.01.03.03.06.03.08.04-.02.08-.02.11-.01Z" fill="#ca005d"/><path d="M24.78,77.47l4.03-.86-.87-4.11c-.1-.03-.24-.23-.33-.26.11-.15.21-.01.29.11l-3.77-17.76-4.03.86,4.68,22.03h0ZM24.75,57.94c.07.25-.6.32-.08.36-.03.1-.19.05-.3.06.03-.08,0-.45-.06-.22-.15-.15.24-.4.44-.2h0ZM24.86,62.9v.29c-.09,0-.06-.09-.08-.15-.15.04-.15.22-.29.06.06-.15.2-.19.38-.2ZM24.86,66.29c0-.15.24-.04.22-.21.06.04.12.08.22.08-.14.11-.12.38-.38.35-.15-.11.1-.17-.06-.22ZM23.47,61.49c.02.11-.07.12-.08.22h-.15c.03-.14-.06-.16-.07-.08-.2-.08.13-.2.29-.14h0ZM22.13,59.08c.21-.04.19.11.36.09.08.24-.24.05-.15.29-.06-.04-.13-.09-.15,0-.09-.02-.04-.07,0-.07,0-.08-.09-.06-.15-.08.04-.06.08-.11.08-.22h0s0-.01,0-.01ZM24.39,73.51c.11-.09.36.02.36.15-.1.04-.38-.1-.37.06-.24.17.19-.25,0-.22h0Z" fill="#ca005d"/><path d="M34.11,75.49l4.03-.86-2.04-9.6,1.92-.41,8.42,8.25,5.04-1.07-6.17-5.91v.03c-.09.06-.2.09-.37.06.07-.06.06-.22.13-.31l-4.03-3.86,5.52-11.98-4.64.98-4.71,10.55-1.82.38-1.74-8.17c-.19,0-.22-.26-.42-.4.1-.19.19-.21.29-.18l-.08-.38-4.03.86,4.69,22.03h0ZM47.82,71.77c.17.06.35-.03.29.37-.16-.06-.34.03-.29-.37ZM45.43,66.42c.04.26-.22.22-.45.2-.03-.34.26-.29.45-.2ZM46.17,70.76c.29.17.15.33-.02.56-.16-.05-.25-.13-.29-.22.07-.2.24-.13.31-.34ZM42.82,53.89c.21.11.36.36.13.52-.17-.06-.29-.36-.13-.52ZM42.23,54.67c.08.22-.16.34-.28.44-.27-.1.11-.6.28-.44ZM40.59,54.23c.12-.24.16.24.23.03.16.1-.14.07-.12.26-.29-.1,0-.22-.11-.29ZM39.73,58.55l.33.16c-.08.03-.14.11-.19.24-.15-.1-.29-.19-.15-.4ZM40.45,65.73c-.04.09-.1.19-.03.23-.06.09-.19-.01-.29-.05.09-.12.15-.28.32-.18ZM40.45,65.97c.07.33-.23.49-.38.35.09-.17.16-.34.38-.35ZM36.89,70.51c.24.02.11.18.2.26-.06.1-.21-.06-.26.04-.08-.06.03-.2.06-.29h0ZM37.32,72.73c.12.05.1.15.24.19-.15.09-.08.29-.29.44-.04-.11-.11-.12-.16,0-.38-.14-.15-.26-.59-.44.22-.31.7,0,.81-.2h0ZM34.98,66.11c.04.06.08.11.17.16-.08.04-.14.11-.19.24l-.2-.09c.1-.05.17-.14.22-.31ZM34.26,69.43c.16.1.36.18.28.52-.27-.06-.45-.24-.28-.52ZM33.16,64.85c-.07.1-.12.22-.3.21.1-.08.04-.19,0-.08-.23-.11.22-.31.3-.13ZM34.62,73.19c.23-.09.36.15.24.35-.1-.08-.15,0-.2.07-.11-.1-.09-.26-.04-.42Z" fill="#ca005d"/><path d="M50.31,63.8l8.66-1.85-.66-3.13c-.07-.04-.13-.11-.18-.2.04-.05.08-.09.11-.11v-.04s-7.94,1.69-7.94,1.69c-.03.19-.15.45-.36.32.03-.07.11-.01.17,0,.07-.11,0-.15-.07-.2.01-.03.03-.04.04-.06l-.5.1.73,3.49h0Z" fill="#ca005d"/><path d="M75.32,65.28s.06.03.08.03v-.15s-.05-.03-.08-.04c-.02.06.03.1,0,.17Z" fill="#ca005d"/><g clip-path="url(#d)"><path d="M72.96,44.2l-.63,10.02s.1.04.07.09c.17-.2.2.15.4.02.07.09.06.2.01.33-.05-.13-.18-.13-.29-.05.26.1-.1.28-.23.34l-.53,8.36-.17.03-8.91-16.96-.47.1c.04.23-.2.37.01.63-.1.16-.2.35-.34.41,0,.4.43.3.31.72l-.13-.06c-.04.05,0,.08.04.1-.19.11-.11-.33-.11-.46-.09.17-.43,0-.91.06.17-.13-.47-.26-.63-.38-.02-.38.14-.47.12-.68l-2.38.5,11.13,20.66,1.18-.26.03-.06.08.04,4.69-1,.05-.68c-.15-.11-.22-.24-.02-.44-.23-.26-.32.14-.62.12,0-.22.31-.34.19-.4.17-.03.34-.07.42-.38.04.1.07.1.11.1l.02-.29c-.06-.01-.13-.01-.21-.01l.1-.2c.03-.07-.06-.1-.1-.13.1,0,.17-.08.26-.12l.35-4.55c-.13.12-.19-.19-.29-.23.08-.04.15-.11.19-.24.15.22-.14.27.1.45l1.28-16.42-4.16.89h0s0,.01,0,.01ZM60.22,49.93c.04.12-.04.18-.03.07-.06-.01-.1.04-.16,0-.03.05,0,.07.04.1-.07.09-.07-.06-.2-.09.08-.08.18-.12.29-.11.03-.04,0-.07-.04-.1.1-.17.07.15.26.12-.03.06-.1.01-.16,0h0ZM62.58,49.32c-.11.07-.1-.06-.29-.06.08-.17.21-.22.38-.15-.07.03-.19.13-.09.2ZM68.32,58.13v-.15c.19.13-.12.37-.37.28.06-.15.23-.29.37-.13ZM66.1,59.84c-.24-.02-.11-.18-.2-.26.05-.07.09,0,.07.03.07,0,.15,0,.2-.07.08.06-.02.19-.06.29h0ZM64.65,52.17c-.12-.12-.04-.49.26-.37,0,.2-.04.25-.26.37ZM66.47,56.43c.07-.11-.01-.18.06-.29.2-.02.33-.04.49.15-.23,0-.16.35-.56.15ZM69.01,64.54c.09.04.17.1.22.02.11.07.1.19.01.33-.06-.01-.05-.06-.04-.1-.06-.03-.09.06-.13.1-.07-.1-.16-.19-.07-.36h0ZM69.57,65.95c-.19-.38-.42-.06-.4-.52.07-.19.39.29.42-.04.24.1.18.47-.02.56ZM69.6,64.82c.17-.08.04-.09.12-.27.19.08.18.21.04.27.08,0,.15,0,.2-.08.15.18-.22.19-.36.08h0ZM70.12,63.68c-.15-.22.33-.45.39-.15-.09.15-.27.06-.39.15ZM70,61.51c-.22-.07-.1-.26-.24-.35.09-.04.19.03.43.11-.08.03-.14.11-.19.24ZM72.49,62.02c-.13-.12-.24-.35-.04-.43.01.14.2.22.04.43ZM72.17,58.69c-.13-.17-.15-.24.01-.4.2.17.18.36-.01.4ZM72.84,55.99c-.11.07-.26,0-.4-.02.1-.19.25-.24.45-.11-.06.04-.13.08-.06.13ZM73.08,51.27c.26.14-.13.2-.08.36-.1-.03-.11-.13-.22-.16.06-.23.25-.13.29-.2h0ZM74.64,63.27c.35.09.2.37.4.52-.18.2-.57-.25-.4-.52ZM74.87,61.01c-.38-.06.04-.42-.34-.48.32-.33.4.2.34.48ZM74.26,57.63c-.12-.11-.22-.13-.33.01-.04-.08-.12-.15-.24-.19.1-.33.33-.32.54-.32-.01.06-.06.05-.1.04.01.16.26.24.12.46ZM73.46,53.43c-.17-.17-.19-.06-.29-.22.07-.04.13-.09.06-.14.04-.06.08,0,.06.03.1.08.15,0,.2-.07.14.08.06.23-.03.4h0ZM74.87,52.46c-.04.08-.24.21-.32.18-.33-.22,1.09-.55.19-.24-.02.11.06.02.13.06h0ZM74.56,49.46l-.06.13-.33-.15c.07-.09.41-.15.4.02h0ZM74.61,44.79c-.07,0-.05-.09-.07-.15-.23.08-.2.03-.36-.08.13-.15,0-.1.01-.29h.36c.02.19.11.29.06.52h0ZM76.09,48.65c-.17-.1-.14,0-.36-.08.03-.1.13-.11.16-.22.04.12.22.12.2.29h0ZM76.41,44.22c.2.08.15.27.11.45-.19-.09-.27-.23-.11-.45Z" fill="#ca005d"/></g><path d="M72.32,54.84c.21-.06.11-.36,0-.53l-.03.36c.05.02.07.07.02.17h0Z" fill="#ca005d"/><g clip-path="url(#e)"><path d="M73.69,77.69s-.09.07-.11.14l-.2-.09c.04-.13.15-.11.19-.24.03.06.07.11.15.15.47-1.01.89-2.05,1.27-3.1-.04.03-.1.06-.13.14-.15-.04-.15-.13-.23-.19,0-.15.39.13.2-.07.06-.08.07.04.17.08.27-.77.51-1.55.73-2.35,0,0-.01,0-.02-.01-.01-.15.1-.24.1-.29h0s-.04-.06-.19-.07c.04-.16.13-.16.19-.24-.03.04,0,.1.03.15.02-.08.04-.14.05-.22-.1-.03-.19-.09-.22-.17.08-.04.14-.11.19-.24.03.04.07.1.1.16.15-.6.29-1.21.41-1.81l-.99.21s-.02.09-.04.13c-.05-.03-.09-.06-.11-.11l-2.94.63h0s-.02.01-.02.01l-7.11,1.51c-3.05,7.96-9.93,14.28-18.9,16.19-.94.2-1.9.34-2.85.44-.04.17-.09.33-.2.43-.19-.08-.41-.13-.43-.38-2.26.17-4.49.04-6.65-.36-.08.14-.29.15-.51.13-.03-.12,0-.17.04-.22-.98-.2-1.96-.46-2.91-.77-.04,0-.07.01-.11.02.01-.02.02-.03.03-.05-3.86-1.29-7.38-3.46-10.26-6.34l-11.2,2.38c2.85,4.06,6.48,7.46,10.64,10.03.01-.11-.01-.31-.05-.56.17-.1.13.01.37-.06.06.15-.02.37.27.45-.13.06-.31.21-.48.24,3.44,2.11,7.24,3.65,11.23,4.52.06-.08.23-.16.08-.19.13-.1.27-.03.58-.06-.02.13.07.15.08.08.19.22-.26.17-.51.2.49.11.98.2,1.47.29.03-.01.04-.03-.03-.1.04-.14.11,0,.17.13.24.04.5.07.75.11.07,0,.15-.02.25-.05,0,.04.02.07.04.1l.48.06c.23-.19.33-.54.15-.79.04-.1.1.03.22,0,.01,0,.03-.02.04-.03-.04-.04-.08-.09-.16-.13.08-.06.16-.13.27-.11h0c-.06-.22-.27.12-.29-.17-.15.01-.15.19-.23.29-.04-.03-.27-.19-.29-.01-.3-.49-.13-.57-.04-.87.19.36.8-.16.8-.12.07.01.55.2.43.31.1.01.2.02.22-.07.26.28-.15.2-.02.59-.1.01-.31.1-.38.35.22.03.24-.16.45-.13.04-.4.22-.67.39-.94-.13-.15-.25-.13-.43-.09.08-.24-.01-.25.09-.51.06.06.16.09.29.09-.15.13.03.13-.01.36.15-.27.13.05.44.01-.24.45.08.5-.46.86.04.27.26.01.36.16-.04-.06-.08-.12-.07-.22.16.03.41.01.52-.13.2.03.06.38.2.44-.15.12-.38.15-.45.35.14.15.38.43.19.67,0,.02.01.03.03.04.06,0,.13,0,.19,0-.14-.34.15.04.24-.26.07.06.1.13.14.22.17-.03.2-.32.37-.14-.05-.31.26-.23.38-.35-.09-.5.01-.27-.11-.88.3.02.23-.36.31-.57.48.11.8-.01.81-.34,0-.03-.52-.04-.51-.01-.08-.02-.04-.15-.14-.15.06-.26.29-.34.39-.57.08.06.06.29-.02.51.6-.28.92-.03,1.23.56-.31-.11-.27.17-.45.2.06.26.14.04.36.09-.03-.06-.07-.12-.06-.22.32-.01.2.3-.01.29.02.15.14.19.21.29.26-.13.64-.11.95-.19.02.13-.07.15-.07.07-.1.01-.08.14,0,.15-.17.1-.34.19-.52.27.26.45,0,.66.15,1.03,1.35-.06,2.71-.21,4.09-.44.01-.09.08-.12.07-.24.14.13.1,0,.29,0-.01.09.02.13.07.15.4-.07.8-.15,1.21-.23.02-.05-.05-.15-.24-.18.06-.26.34-.1.44.01-.1-.01-.12.05-.1.15,1.72-.37,3.39-.86,5-1.46,0-.08,0-.15-.01-.22.1-.01.2.11.28.13.02,0,.04-.02.06-.03.02-.04.04-.11.03-.24.09,0,.15.07.19.15,8.87-3.44,15.82-10.2,19.65-18.51h-.01ZM75.98,70.31c.14.07.06.24-.02.4-.28-.15-.06-.18.02-.4ZM74.53,73.3c-.07-.1-.06-.24.02-.4.03.08.13.19.2.1.19.23-.2.13-.22.31ZM75.1,71.36c.15.15.18.34.15.56-.31.03-.36-.24-.15-.56ZM74.97,73.74c-.07-.1-.16-.19-.08-.36.18.01.2.03.33.16-.03.2-.19.07-.25.2h0ZM74.66,72.13c.08.08.12.18.2.26-.16.21-.26-.13-.49.02-.23.04.22-.19.29-.27h0ZM74.26,76.18c-.1-.12-.1-.33-.27-.13-.09-.16.25-.42.45-.27.06.17-.13.14-.19.4ZM73.71,71.77c.19.19.06.51-.26.36.1-.27.04-.27.26-.36ZM73.42,74.15c.16.09.15.23.29.06.12.06-.17.22-.22.31-.07-.1-.17-.2-.07-.36h0ZM13.07,83.9c-.24-.24.49-.08.59-.2-.01.09.01.13.07.15-.15.33-.49-.06-.66.05h0ZM15.26,86.53c.03-.1.13-.11.15-.22-.06-.01-.07.03-.08.07-.19-.08.13-.2.3-.14.04.27-.13.32-.38.28h0ZM16.51,83.42c.03-.1.19-.06.29-.07-.01.2.11.15-.01.29-.15-.02-.19-.15-.28-.22h0ZM17.84,87.64c-.2.12-.13-.33-.22-.08-.19-.17.22-.34.38-.21.01.17-.03.27-.15.29h0ZM17.28,84.39c-.26-.25-.36-.24-.42-.6.06,0,.06.03.07.08.1.04.45.17.5.45-.1,0-.14.01-.16.07ZM17.54,83.83c-.08-.15-.08-.16-.28-.3.1-.19.1-.49.45-.43.01.06-.03.07-.08.07.31.19.15.1.43.31-.16.13-.27.32-.52.34h0ZM20.74,86.34c-.04-.07-.29-.33-.14-.15-.05.21-.11-.11-.22-.08.17-.26.59-.03.36.23h0ZM23.3,93.45c.11-.09.19-.2.38-.21.01.34-.22.42-.38.21ZM21.98,86.67c-.05-.26.17-.36.29-.21-.11.05-.11.23-.29.21ZM22.65,86.57c-.15-.05-.24-.16-.36-.24.17-.33.56-.15.36.24ZM26.34,90.04c.11.04.18.11.29.15.05.2-.15.14-.15.29-.19-.01-.14-.26-.13-.45h0ZM25.85,89.82c-.18.03-.15-.14-.36-.08-.02-.17.02-.29.08-.36.29.19.53.04.29.45h0ZM27.38,94.03c-.21.26-.34-.15-.43-.24.13-.1.2-.24.44-.21.02.13-.22.36-.01.45ZM27.84,93.82c-.11.04-.17-.29-.22-.08-.18-.14-.27-.36-.57-.38.03-.17.32-.06.37-.2.24.09.24.34.5.38.03.15-.05.19-.08.29ZM27.37,89.78c-.06.2-.18-.1-.36-.01.04-.06.08-.12.08-.22.01-.06-.03-.07-.08-.08.06-.16.22.17.36.16-.13.08-.35.01,0,.15h0ZM28.8,96.21c-.03-.15.06-.2.09-.29.06.04.11.08.22.08-.07.11-.07.29-.3.21h0ZM34.04,89.69c.37.02.14.29.06.45-.14-.15-.11-.27-.06-.45ZM32.21,87.44c.08-.03.19-.12.07-.14.04-.15.29.1.21.29-.23.06-.22-.12-.36-.16.01-.09.08-.04.08,0h0ZM31.17,90.27c.21-.06.19.1.36.08-.06.06-.09.16-.09.29-.1-.04-.18-.12-.29-.15v-.22h.01ZM27.79,85.76c.03-.1.19-.05.29-.06-.06.06-.08.16-.08.29-.06-.04-.12-.08-.22-.08.05-.06.1-.13,0-.15h0ZM29.81,96.46c-.19-.18-.29-.04-.43-.31.02-.1.22-.01.22-.14.11.11.18.26.2.45h0ZM28.96,92.83c-.1-.26.26-.03.23-.21.1.17.32.22.43.38-.4.17-.18.06-.66-.17ZM29.73,93.73c0-.06.09-.05.15-.06-.01-.09-.13-.07-.22-.08-.06-.25.24-.1.37-.13.03.23-.07.33-.31.28h0ZM30.76,94.07c-.57,0-.25-.08-.57-.31.19-.19.46-.11.59-.2.07.15.15.26-.02.51h0ZM29.8,91.47c.01-.13-.08-.15-.06-.29.17-.02.27-.11.51-.06-.07.1.04.4.14.29.04.35-.37-.15-.59.06ZM31.94,95.79c-.01-.2.11-.24.3-.21-.01.08.01.13.06.15-.11.17-.18.1-.37.06h0ZM33.16,96.93c-.2,0-.42.01-.52-.09.04-.06.1-.13,0-.15.17-.07.27-.22.52-.2,0,.27.07.2-.01.44h0ZM33.58,97.16c-.06.22-.15-.08-.29,0-.04-.16.14-.1.15-.22.25.03-.01.2.14.22h0ZM33.46,94.01c-.29-.02.02.11-.15.21-.13,0-.24,0-.36-.01.1-.09-.06-.53-.06-.36-.17-.34.63-.19.58.16h0ZM34.58,98.01c-.19.08-.18-.36-.21,0-.1-.03-.06-.19-.06-.29.06.02.07.07.14.08.06.01.07-.03.08-.06.1.03-.03.09,0,.21.06.01.06-.03.07-.06.11.03-.01.06,0,.14h-.01ZM32.69,90.55c.16-.13.22-.24.45-.13-.11.1-.33.26-.45.13ZM32.59,89.16c.33.02-.04.46-.24.58-.22-.01-.42-.04-.36-.31.26.04.42-.02.59-.06-.13-.1-.16-.19.01-.29-.02-.16-.19-.16-.29-.23.14.26-.03,0-.07.15-.19.03.19-.33-.06-.37.21-.07.06.01.01-.29.5-.14.59.19,1.16.26-.1.17,0,.14-.08.36-.09-.08-.15-.06-.15.07-.45.12-.48-.24-.52.13h-.01ZM34.88,95.6c-.19-.2-.09.17-.37.06.03-.04.19-.27,0-.29.08-.17.46-.02.36.23h0ZM34.48,94.04c-.02.09-.08.04-.08,0-.06.04-.12.08-.22.07-.01-.06.03-.07.07-.08,0-.06-.08-.06-.15-.08v-.36c.24-.04.15-.05.38.01,0,.28-.12.33-.01.44h0ZM34.76,92.29c-.24.12-.24-.04-.51-.08,0-.15.2-.09.15-.29.17.1.14,0,.36.08v.29s0,0,0,0ZM39.74,92.72c-.06.17-.2.16-.29.27-.08-.19,0-.49.29-.27ZM39.86,93.18c.17.12.1.18.06.37-.1-.03-.11-.13-.22-.15.03-.1.13-.11.16-.22ZM37.57,90.08c.03-.07-.05-.1-.1-.13.09-.13.22-.12.32-.18.07.04,0,.08-.03.06-.03.19-.02.41-.28.27.01-.06.05-.05.09-.04h0ZM35.37,89.17c.54-.02.77.42,1.39.11-.14.2.14.5.04.88-.34-.06-.59.38-.53.5-.11.12-.2-.03-.51-.02.16-.19-.15-.28.02-.51.12.14.22-.01.29-.15.03-.11-.07-.13-.07-.22-.21,0-.31.12-.37.28-.37-.36-.04-.44-.34-.81.13.02.15-.07.08-.07h0ZM36.62,91.54c-.27-.16-.54-.17-.34-.75h.29c-.04.27.41.25.05.75h0ZM35.73,94.08c-.16,0-.03-.26-.06-.37.13,0,.15.1.29.09-.06.06-.09.16-.09.29-.06-.05-.13-.09-.15,0h0ZM36.29,94.97c-.12.19-.4-.04-.36-.24.4-.1.15.14.59-.13.04.2-.46.21-.23.36ZM37.34,96.47c-.08.2-.13-.2-.36-.09-.09-.24.24-.05.15-.29.08.05.07.17.22.15.01.12-.13.19,0,.22h0ZM38.38,96.07c-.27-.09-.44-.38-.27-.66.18,0,.36,0,.44.08-.05.33-.08.26-.17.58ZM38.05,94.89c-.1-.03-.11-.13-.22-.15.11,0,.1-.14.37-.14-.01-.24-.05-.66.1-.87-.21.15-.15.2-.52.13-.11.03.03.09,0,.21-.25.1-.89.16-.81.27-.08.2-.26-.09-.36-.09.01-.5-.04-.66-.27-.96.36-.34.07-.32.46-.57.06-.2-.14-.15-.13-.29-.11.06-.29.04-.23.28-.27.01-.19-.29-.43-.31.03-.45-.11-.46-.27-.59-.01-.2.28-.05.23-.28.22.06.14.05.36.01-.17.2.2.22.36.15-.04.15.1.14.21.15-.04.26.05.38.2.44.09-.01.04-.07,0-.07.26-.43,1.14.37,1.32.04.22-.07.12.17.14.29.24-.06.04-.13.08-.36.23.14.61-.06.65.39-.4.08-.5.15-.75.49-.12.03-.13-.06-.14-.15-.28.05-.01.26-.15.36-.2.11-.64-.36-.74.2.18.31.25-.05.51-.06-.03.11.07.13.07.22.16-.09.4-.08.45-.28.15.05.04.34.21.38-.15.09-.18.54-.38.35.18.27.27.45.27.75-.13-.01-.59-.26-.59.06h-.01ZM39.06,95.36c.04-.06.08-.11.08-.22.1.01.2.02.22-.06.01.31.15.53-.02.8-.21,0-.17-.23-.36-.24,0-.11.45-.23.08-.29ZM38.84,93.09c-.09.1-.03,0,0-.08.13-.01.19.13.22,0,.09.02.04.08,0,.08.01.08.15.05.14.15.1.15-.34-.11-.36-.15h0ZM39.41,98.09c-.06-.01-.07.03-.07.06-.13-.07.47-.4.31-.5.04-.1.09.03.22,0-.03.12-.17.28.06.29-.08.2-.39.39-.51.13h0ZM39.44,97.36c.02-.09.08-.04.08,0,.17-.02-.08-.2-.15-.22.22-.21.28-.15.52-.28-.1.1-.04.22.06.3-.16.08-.37.34-.52.2h0ZM39.39,94.06c-.16,0-.03-.26-.06-.37.04.12.36,0,.28.23-.06.01-.07-.03-.07-.07-.08,0-.04.07,0,.07-.02.08-.15.04-.15.14h0ZM40.1,94.67c-.06-.05-.13-.1-.15,0-.14-.14-.1-.27-.36-.16.12-.24.56-.06.66-.2.16.06-.13.25-.16.36h0ZM39.29,90.33c-.08-.05-.07-.18-.22-.16.01-.27.28,0,.29-.13.17.02-.08.19-.08.29ZM40.51,93.66c-.04.06-.08.11-.08.21-.3-.03-.2-.29-.13-.52.06.04.13.1.15,0,.09.02.04.08,0,.08-.02.06.03.07.07.07-.02.1-.31.13,0,.15h0ZM40.05,89.18c-.07.14-.29-.2-.43-.24-.02-.22.2.19.22-.06.08.02.03.07,0,.07.03.09.12.19.15.08.19-.22-.09.21.06.15h0ZM41.17,91.05c0-.13.1-.15.09-.29.1-.04.17.29.21.08.13.06.18.26.06.36-.07,0-.05-.09-.07-.15-.1.09-.18.08-.29,0h0ZM41.9,93.49c.19-.26.4-.24.59-.06-.16.16-.45.24-.38.43-.31.1,0-.38-.2-.37ZM42.5,95.41c-.15.13.03-.16-.07-.3.09.01.13-.01.15-.06.11.02.02.22.14.22-.02.11-.21.02-.22.15ZM43.24,97.34c-.1-.07-.15-.19-.13-.37.22.2.34-.16.59.02.11.4-.34.2-.45.35ZM45.87,95.23c-.09-.16-.12-.13-.19-.07-.11.17-.34.02-.43.24-.16,0,.03-.4-.13-.23-.15-.15.19-.17.19-.4.04.02.08.04.13.06.01-.1.01-.07-.05-.42.24.12.27.42.57.46-.17.15.06.23-.08.36h0ZM46.9,94.89c.01.06-.03.06-.08.06h-.15c0-.11.04-.28-.06-.29.07-.1.11.03.3-.06-.03.04-.2.27-.01.29ZM47.69,95.43h-.36c.05-.08.1-.15,0-.16.22-.13.17-.18.23-.36.06-.15.11.08,0,.07,0,.07.09.06.14.08,0,.11,0,.24,0,.36h0ZM47.33,92.85c-.07-.05-.06-.17-.22-.15.04-.06.08-.11.08-.22.26-.04.26.27.13.37ZM47.89,91.4c.11.04,0,.08-.08.07.01.08.13.07.22.08-.1.26-.22.29-.52.2.15-.09.2-.29.38-.35ZM48.41,93.48c.18.18.06.2.06.51-.18.03-.15-.14-.36-.09.06-.45.4-.02.24-.5.15-.03.19.06.29.08-.06.12-.13,0-.22,0h0ZM48.79,88.36c.09-.09.07-.15-.07-.15.11-.15.2-.34.52-.27.03.34-.12.47-.45.43ZM50.55,88.21c-.06-.04-.11-.08-.22-.08-.03-.23.19-.26.3-.14-.04.06-.08.11-.08.22h0ZM53.78,93.6c.06-.23.26-.1.35-.24.19.26-.19.54-.35.24ZM54.59,94.63c-.06-.03-.01-.1,0-.17-.21.09-.3-.12-.37-.26.25-.35.64.29.37.42ZM56.22,94.4c-.04-.06-.08-.13-.13-.06-.15-.06.08-.26.08-.37.11.11.1.26.04.43ZM55.02,85.13c.06-.22.2-.27.39-.15-.13.06-.2.27-.39.15ZM57.28,90.84c-.09-.01-.13.01-.15.06-.09-.01-.06-.13-.07-.22-.06,0-.06.03-.07.07-.23-.08.16-.11.15-.22.13.03.17.14.14.3h0ZM56.65,88.91c-.11,0-.04-.34-.17-.16-.06-.04.02-.15-.06-.19.22-.06.11-.08.28-.27.16,0-.03.4.14.23.16.15-.15.27-.19.4h0ZM59.41,90.6c-.13-.17-.15-.24.02-.4.13.17.14.24-.02.4ZM59.15,83.63c-.09-.04-.19-.1-.22-.02-.26-.15.18-.2-.11-.3.08-.13.27.05.36-.08.14.07.06.23-.03.4ZM62.1,87.53c-.13-.1-.17.04-.23.15-.05-.14.01-.4.11-.43l.13.06c0,.07.01.14-.03.23h0ZM63.32,88.35c-.14.18-.11-.13-.27-.13.31-.28.32-.06.27.13ZM63.32,86.96c-.2.06-.41,0-.49.01-.12-.1.21-.2.26-.36.05.03.04.1.1.13.07.03.1-.06.13-.11.2.04-.19.29.01.33h0ZM63.35,85.5c-.26-.06-.22-.31-.08-.36.19.06.18.19.08.36ZM69.49,76.31c.18-.12.75-.56.98-.04-.06.27-.26.19-.34.41-.08-.26-.28-.06-.63-.37h0ZM71.33,80.51c-.26.01-.33-.2-.27-.45.26.08.31.26.27.45ZM71.02,81.01s.17-.64.42-.38c-.2.22-.12.36-.42.38ZM72.95,75.39c-.1-.2.21-.08.3.06-.15.15-.37.45-.18.57-.04.12-.15.1-.19.24-.21-.06-.27-.39-.4-.02-.07-.15.11-.67-.15-.56-.15-.15.18-.2.21-.31l.47.22c-.01-.07-.02-.14.03-.24-.05-.03-.08,0-.1.04h0ZM71.97,72.99c.21.12-.31.2-.09.36-.07.21-.11-.26-.22-.03-.17-.29.26-.15.31-.34ZM70.94,73.32c.03-.05,0-.08-.04-.1.06-.2.21.22.04.1-.05.17.29.19.14.4-.19-.1-.45-.17-.5-.32.06-.19.19-.18.35-.08h0ZM70.01,73.94l-.1.2c-.19-.39.22-.42.4-.71.16.26.06.62-.31.5h0ZM69.7,73.23c.06.04.12.04.16,0,.04.13.04.38-.12.43-.19-.08-.11-.26-.04-.43ZM70.01,75.17c.07.07.05.17.13.23-.08.05-.19,0-.22.14-.03-.06-.07-.11-.17-.16.07-.04.14-.08.06-.13.05-.06.15.02.19-.07h0ZM68.79,73.45c.22.2-.26.42-.34.74-.06-.03-.01-.11,0-.17-.07-.03-.09.06-.13.1.06-.2.38-.35.48-.68h0ZM68.27,75.65c.14-.26.2.19.29-.11.08.06.05.17.13.23.13-.11.38-.17.32-.34-.1-.07-.08-.15-.17-.32,0,.21-.59.21-.59-.12.24-.1.34-.34-.01-.5.12-.42.61-.18.51-.42.09-.06.2-.06.33,0,.05.17-.25.57-.27.77.17.03.42-.05.49.15.17-.22-.07-.31-.11-.45.08-.11.21-.11.28-.27.24-.03,0,.35.17.17.19.06-.29.18.04.26-.07.08-.17.05-.23.14-.14.17.01.22-.08.37.14.03.17-.24.36-.07,0,.57-.45.45-.56,1.21-.48-.08-.32.24-.75.22-.06-.52-.11-.39-.15-.89h0ZM66.22,80.64c.27.12.1.26-.02.4-.14-.08-.06-.24.02-.4ZM64.52,85.06c-.14-.08-.07-.23.02-.4.27.11.1.26-.02.4ZM66.86,85.73c-.16.11-.13-.16-.23-.02-.15-.1.1-.32.15-.34,0,.13.16.19.08.36ZM66.59,83.17c-.07-.19,0-.29.12-.43.06.18.22.01.29.22-.04.33-.35-.06-.42.21h0ZM65.47,75.65c.08-.04.14-.12.19-.24.34.1.2.4.57.34-.06.19-.28-.07-.32.18-.23-.16-.16-.11-.43-.28h0ZM67.83,84.48c-.2-.08-.13-.25-.33-.33.18-.17.07-.19.22-.47.16.12.14.13.33.32-.19.07-.18.31-.22.48ZM67.69,82.87c.25-.08-.1-.26.15-.34.17.1.15.5-.15.34ZM66.32,73.26l-.27-.12c.07-.22.29-.04.43-.05-.06.04-.12.08-.16.17ZM67.6,77.45c-.08-.18-.15-.01-.23-.19.11-.1.21-.23.35-.24.15.07-.1.29-.12.43ZM69.48,80.19c.08.07-.07.07-.1.2-.4-.25-.32-.38-.6-.61.06-.04.13-.08.06-.13.31-.03.27-.27.49-.18.2.15-.18.8.15.72ZM70.32,81.32c-.11.24-.15-.24-.23-.02-.04-.07-.08-.4-.2-.26-.18-.2.2-.1.21-.31.06.03.01.1,0,.17.08.04.13.04.16,0,.23.07-.09.33.04.43h0ZM69,78.26c.31-.03-.13-.39.19-.24,0-.06-.04-.1,0-.17-.17,0-.24.26-.45.11.05-.2-.08-.34-.18-.49.08-.16.2-.15.26-.37-.2-.21-.21.13-.4-.02,0-.25.1-.19.22-.47.41.01.48-.18.8-.2.01.56.46.93.24,1.41-.01.07.21.31.23.19-.11.31-.56.8-.9.23h0Z" fill="#ca005d"/></g><path d="M38.81,98.54c-.18-.28-.46,0-.58-.09v.17c.11.01.23.01.34.02.04-.06.11-.11.24-.1Z" fill="#ca005d"/><g clip-path="url(#f)"><path d="M75.92,71.42s0-.03.01-.04c-.01.01-.03.02-.04.03,0,0,.03.01.04.01h0Z" fill="#ca005d"/></g><path d="M45.44,94.77c0,.06-.01.15,0,.39.13.03.2-.02.26-.06,0-.01.01-.02.02-.03,0-.13-.11-.22-.27-.3Z" fill="#ca005d"/><path d="M37.14,97.67c.04-.1.04-.16.03-.24-.03-.02-.06-.02-.08-.03-.01.11-.04.19-.11.24.04.03.08.05.17.02h0Z" fill="#ca005d"/><path d="M70.11,41.26s-.04-.04-.04-.06c0,.02,0,.04.04.06Z" fill="#ca005d"/><path d="M12.12,56.82c-.01.05-.03.1-.03.15.02-.02.03-.06.03-.15Z" fill="#ca005d"/><path d="M11.88,40.89c-.29.4-.59.81-.87,1.22.01,0,.02,0,.03,0-.01.06-.04.05-.06.03-.19.27-.36.54-.54.82,0,.06-.03.09-.06.1-.15.23-.29.45-.43.7.15.03.22-.04.18-.22.24.31,0,.61-.03.81.16.02.24-.05.23-.21.08.17.14.31.42.6-.06.16-.4.01-.58.05.03-.11-.07-.13-.07-.22-.22.02-.45.04-.65.04-1.88,3.31-3.26,6.91-4.02,10.7.12.02.19.13.21.26l10.92-2.32c1.35-3.55,3.48-6.77,6.21-9.42-.13.03-.13-.02-.26-.11.11-.17.43-.03.44-.13.02,0,.03.03.02.06.43-.41.87-.81,1.34-1.19-.06,0-.11-.01-.15,0,.01-.08-.01-.13-.07-.15-.03-.19.36.22.29-.13.15.02.12.09.1.14,2.64-2.15,5.75-3.8,9.19-4.79.08-.14.2-.24.32-.54.24-.09.35.1.37-.14.08.11.3.1.28.31-.1,0-.23.1-.34.2.38-.1.77-.19,1.16-.27,8.59-1.83,17.09.82,23.08,6.37v-.2c.24-.04.27.24.1.29.22.21.45.42.66.64l5.48-1.17c.06-.05.19-.09.26-.11.02.01.03.04.03.06l.36-.08s0-.04,0-.06c.08-.02.14,0,.18.01l4.88-1.03c-.12-.18-.26-.35-.38-.52-.05.15-.24-.08-.36-.08.07-.04.12-.11.17-.17-.34-.46-.68-.9-1.03-1.34-.01.04-.04.07-.09.09-.12-.15-.19-.07-.27-.29.05-.01.1-.03.15-.04-.31-.38-.63-.75-.95-1.1-.05,0-.11,0-.17-.04.01-.06.05-.05.1-.04-.05-.04-.08-.08-.1-.11-.48-.52-.98-1.03-1.48-1.53-.17.06-.49-.15-.29,0-.15.03-.14-.15-.05-.33-.56-.53-1.12-1.03-1.72-1.52,0,.03,0,.05,0,.09-.07-.04-.08-.09-.08-.15-.06-.04-.12-.1-.19-.15-.04.04-.08.09-.14.12-.03-.09,0-.13.04-.19-.24-.19-.47-.38-.7-.56-.06.05-.15.08-.21.02-.04.12.04.2.2.26-.22.31-.47.51-.87.33.15-.14.31-.26.48-.35-.2-.13-.24.14-.45-.04.03-.07.1-.01.16,0,0-.23.22-.31.45-.38-1.5-1.14-3.1-2.17-4.76-3.06-.08.11-.31.24-.24.43-.12-.06-.18.02-.3-.06.05-.17.01-.29.15-.5.04.07.2.1.28.08-3.22-1.72-6.72-2.95-10.36-3.63-.07.19-.26.06-.34.24-.06-.05,0-.09.03-.07.03-.06-.06-.09-.1-.13.04-.03.07-.06.11-.1-.8-.14-1.61-.26-2.43-.34,0,0,0,.02.02.03-.06.07-.06,0-.1-.04-.03,0-.06,0-.09,0,0,.01.01.04.03.04-.07.1-.15.03-.17-.06-3.61-.36-7.35-.17-11.09.62-1.49.32-2.95.73-4.36,1.22v.03s-.04,0-.05-.01c-.06.02-.13.04-.19.07-.02,0-.04.01-.05.02-4.62,1.64-8.74,4.16-12.21,7.33.48.16.08,1.21-.64.61-1.25,1.19-2.42,2.49-3.48,3.84.15-.04.27-.13.29-.36.12,0,.19.06.21.15.17.02.04-.26.09-.36.23.19-.06.31.43.31.04.25.12.45.35.52-.07.11-.11-.02-.3.06.25.68-.89.47-1.03.11-.01-.03-.1.04-.08.07-.2-.05.12-.11.08-.22,0-.1-.08-.13-.16-.15-.1.11-.18.24-.27.36,0,.04,0,.1-.01.14h-.08v-.03h0ZM68.98,41.47c.23.17.18.15.46.22-.03.08-.07.11-.13.1-.04.05,0,.08.04.1-.11.2-.19-.42-.3-.06-.04-.11-.1-.12-.16,0-.2-.17.03-.14.09-.37ZM67.32,39.31c.27-.03.1-.33.42-.2-.1.13-.04.19-.06.29.13-.19.09-.01.24.19-.23,0-.17.35-.56.15,0-.15.17-.36-.04-.43ZM66.42,37.59c-.09.2-.29.1-.42.21-.09-.09.33-.59.42-.21ZM63.44,37.1s-.25.04-.29-.06c-.26-.54.64-.08.29.06ZM63.8,36.53c.07-.05.11-.13.15-.22.13.02.16.13.13.3h-.36c0-.15.08-.17.08-.09h0ZM64.08,38.9c.15.13.1,0,.3.01.01.03.02.08.03.12.1.1.09.13.04.16.02.04.04.07.07.09,0,.11-.13.07-.26.06,0,0-.01.01-.01.03-.02-.01-.03-.02-.04-.03-.02,0-.04,0-.05,0,0-.18-.11-.22-.06-.44h0ZM62.92,34.75c.12.04.1.15.24.19-.17.46-.4.27-.57.38-.27-.31.22-.43.34-.57h0ZM64.23,42.04c.06.11-.1.33-.29.44-.15-.03-.15-.13-.23-.19.21-.27.31-.16.51-.26h0ZM61.62,35.81c.13.01.15-.08.3-.06v.29c-.12-.01-.22-.02-.24.07-.1-.03-.06-.19-.06-.3ZM59.09,35c-.2.02-.24-.11-.21-.3.06.05.13.1.15,0,.1.02.06.18.07.29h0ZM58.71,34.66c-.03-.15-.14-.29-.01-.5.12.03.24.34.4.19.15.3-.27.26-.38.31ZM59.6,31.65c.22.06.26.2.14.4-.06-.03-.01-.11,0-.17-.09-.02-.11.1-.16.17-.26-.03,0-.26.02-.4h0ZM58.51,32.1c.19-.03.33-.22.51-.25,0,.43-.02.19-.41.54-.28,0,.07-.25-.1-.3h0ZM58.3,33.97c.18-.19.41-.1.54-.32.15.04.15.13.24.19-.01.12-.33.04-.16.17-.2.11-.43.12-.57.38-.14-.09.07-.32-.04-.42h0ZM58.4,38.48c.02-.1.21-.02.22-.14.15.06.19.2.21.37-.06.03-.13.06-.15.14-.14-.04-.18-.16-.36-.16-.12-.2.33-.13.08-.22h0ZM55.63,30.63c.2-.04.14.15.29.16-.07.1-.19.15-.37.13.06-.06.08-.16.08-.29h0ZM56.93,37.49c.31.12.29.37.04.42-.04-.13-.12-.25-.04-.42ZM55.46,31.66c-.04.14-.04.31-.22.28-.15-.14-.03-.35.22-.28ZM56.73,40.73c-.04-.06-.08-.12-.17-.16.06-.19.2-.18.36-.08-.04.15-.13.16-.19.24ZM55.49,33.81c-.08.17-.28.03-.45-.05.04-.05.1-.09.15-.12-.05,0-.1,0-.15,0,.01-.11.02-.21-.07-.22.02-.26.24.16.22-.07.07.05.06.17.22.15,0,.04-.02.06-.04.09.09.06.02.18.13.23ZM55.06,32.63c.02.16-.12.34.13.06.17.15-.16.13-.15.34-.04-.06-.08-.11-.17-.16-.05-.04-.08,0-.1.04-.12-.13.24-.14.28-.28h0ZM53.9,32.34c.18-.1.13.01.37-.06-.03.24.12.31.06.59-.44-.04-.33-.17-.43-.52ZM34.45,33.56c-.4.03,0-.26-.21-.37.13-.1.1-.34.38-.28.04.34-.26.4-.17.65ZM38.97,31.95c-.19-.1-.03-.48.23-.36-.03.17-.26.13-.23.36ZM40.31,35.95c-.2-.1-.08-.24-.13-.59.09.03.11.13.22.15-.08.26-.02.18-.09.43ZM39.45,32.77c-.02-.2.1-.23.29-.2.03.15-.05.19-.08.29-.06-.04-.12-.08-.22-.08ZM42.96,35.22c-.07.18-.32-.07-.44-.08.2-.21.2-.57.17-.87.28-.17.02.49.28.45-.03.27-.12.42-.01.51ZM43.74,35.82c.2-.09.04-.17-.07-.03-.17-.25.24-.15.29-.27.06.15.04.46-.22.31h0ZM43.41,32.49c-.04-.15-.7-.02-.2-.11-.41-.15.03-.24.37-.21.09.26-.17.15-.17.33ZM43.95,32.18c-.22-.09-.28-.23-.2-.43.15.08.24-.03.42.12-.05.16-.13.25-.22.31ZM45.34,31.86c.04-.06.08-.12.08-.22.24-.06.15.2.29.23-.03.17-.33.03-.36-.01ZM46.2,32.4c-.03.1-.19.05-.3.06.01-.13-.08-.15-.06-.29.18-.1.13.01.37-.06.09.17-.2.27-.01.3ZM52.62,32.96c.13-.23.19.19.21.3-.11-.13-.34.08-.36-.24.07-.12.32.07.15-.07h0ZM51.97,30.62c-.06.03-.12.07-.16.17-.04-.07-.08-.14-.13-.06-.08-.06.02-.2.05-.29.04.08.12.14.24.19h0ZM51.21,29.25h.15c.01-.06-.03-.06-.06-.07.08-.15.34.14.28.38-.12.01-.19-.13-.22,0-.1-.05-.13-.16-.14-.3h0ZM51.71,31.76c.1.05.13.16.15.29-.18-.03-.16.13-.37.06.04-.15.16-.24.22-.36h0ZM52.68,38.17c.29.11.45.43.13.59-.15-.15-.22-.38-.13-.59ZM52.04,35.58v.29c-.3.05-.29-.36,0-.29ZM52,36.67h.22c-.02.14.06.38-.16.3.01-.13-.08-.16-.06-.3ZM49.76,28.77c.06.01.06-.03.07-.07.23-.01-.2.2.07.22-.24.24-.34.24-.66.27-.11-.38.36-.84.52-.43ZM49.05,30.28c0,.06-.03.07-.08.08l.21.23c-.07.21-.11.08-.3.06,0,.06.03.07.07.08-.11.19-.27-.48.1-.45ZM50.16,36.12c0,.13.16.2.08.36-.27-.05-.27-.29-.08-.36ZM48.49,29.39c-.08.24-.31.33-.45.13.12-.1.29-.3.45-.13ZM47.49,28.12c.08.18.15.01.24.19-.04.2-.2.07-.26.2-.14-.08-.06-.24.03-.4ZM49.45,37.51c-.07.01-.42.14-.2.07.17.13-.15.06-.15.17-.17-.26.2-.55.35-.24h0ZM45.54,27.75c.09-.01.07-.13.08-.22.06.06.16.09.29.09-.04.26.22.22.2.45-.1-.04-.17-.11-.21-.23-.1.04-.14.15-.15.29-.19.01-.04-.29-.28-.23.04-.06.09-.13,0-.15.02-.09.07-.04.07,0h0ZM45.27,26.86c-.19.14-.56,0-.58-.24.09-.04.63-.06.58.24ZM44.51,27.72h.29v.23c-.13-.13-.3.1-.29-.23ZM44.76,29.19c.29-.04.42-.26.75-.27.17.37-.38.7-.33.94-.34-.04-.46-.28-.42-.67h0ZM43.26,27.82c.21-.04.19.11.36.09-.04.08-.17.07-.15.22-.06-.04-.11-.08-.22-.08v-.22h0ZM43.61,28.49v.21c-.15.07-.24-.22-.29,0-.17-.23.11-.17.29-.21h0ZM42.01,28.07c.19.01.16.27.06.37-.09-.03-.11-.13-.22-.15.05-.08.17-.07.15-.22ZM43.06,29.5c-.23-.11.22-.1.23-.21.27.09.12.42.64.54-.12.17-.17.13-.09.36-.14.05-.27.11-.44.13.18.46-.18.84-.69.79.04.1.11.18.21.23-.21.1-.26.26-.37.06-.14.03-.31.02-.3.21.08.12.23-.18.44.01-.04.31-.74.05-.59.42-.08.15-.42.01-.45.2-.39-.2.15-.47-.34-.59.01-.25.17,0,.3-.21.11.04,0,.08-.08.07.1.2.26.38.43.16.03-.21-.16-.23-.13-.45.22-.01.22.17.43.16-.17-.31-.19-.45-.42-.59.19.04.2-.39.24-.43.2-.26.98-.57.98-.84h0ZM41.45,29.59c.43.16.14.56.56.68-.13.09-.39-.11-.31.36-.32-.17-.29-.27-.64-.46.07-.25.16-.48.39-.57h0ZM39.26,27.1c.09.07.27.07.28.22.02-.34.24-.19.59-.27,0,.22-.02.44.2.44-.1.23-.51.12-.53.43-.43-.05-.34-.45-.42-.67-.11.03.03.09,0,.21-.22.01-.25-.26-.13-.36ZM40.84,30.59c-.05.07-.17.06-.15.22-.06-.04-.13-.07-.14-.15-.06-.01-.07.03-.08.08-.14-.01.07-.27.09-.36.15.03.19.15.29.23h0ZM40.38,31.3c-.01.08.01.13.06.15-.02.08-.07.04-.07,0-.07.06-.02.22-.09.43h-.22c-.01-.06.03-.07.08-.08-.18-.07-.12-.36-.27-.45.19.01.2.01.51-.05ZM39.91,32.09c.02-.08.08-.04.08,0,.15-.18.3-.09.51.01.11-.25.17-.37.02-.51.07-.31.15-.25.02-.59.14.04.47-.09.29-.13.11-.22.12.26.28.23,0-.23.57-.09.66.09-.22-.13-.47.1-.66.05.27.29-.11.26-.17.58.33.18.26.29.27.75-.13-.06-.27-.13-.43-.17-.03.36-.4.31-.68.57-.13-.02-.16-.13-.13-.29.26-.12.34.12.37-.21-.23.21-.18-.19-.51-.09-.1-.19.29-.22.08-.29h0ZM39.22,30.9c-.2.2.27.16.36.3-.15.41-.7-.11-.73-.02-.11-.03.07-.13-.06-.15.07-.12.23-.15.44-.13h0ZM38.51,30.14c.2-.12.13.33.22.08.11.03-.07.13.07.15-.17.13-.08.44-.32.64-.22.15.2-.48-.2-.38.08-.17.26-.22.23-.5h0ZM38.47,31.17c.18.05.16.29.2.45-.27.07-.23-.16-.36-.23.05-.07.17-.07.15-.22h0ZM33.84,29.64c.2.08.23.3.27.52-.12-.03-.14.05-.15.14-.22-.03-.05-.42-.43-.31.06-.06.09-.16.09-.29.1.01.21.02.22-.07h0ZM32.8,27.85v-.36c.14-.02.16.08.08.08.09.21.22-.31.37-.06-.11.15-.31.23-.31.5-.13,0-.15-.09-.29-.08,0-.08.1-.06.16-.07h0ZM33.19,31.6c-.01.09.01.13.07.15-.26-.04-.04,0-.37.13.05-.05.12-.19,0-.21.03-.1.19-.06.29-.07h0ZM32.1,28.78c.06.04.12.08.22.08.03.28-.11.38-.31.43-.09-.22-.06-.38.09-.51ZM32.21,37.06c-.07-.21-.08-.31.23-.28-.13.12.1.29-.23.28ZM32.33,35.75c-.1.26-.12.14-.37.2-.03-.22.16-.22.37-.2ZM30.88,30.65c-.11.22.05.26-.08.44-.19-.08-.19-.39.08-.44ZM31.57,36.53c-.24.1-.11-.01-.29.21-.08-.02-.04-.08,0-.08.04-.18-.13-.16-.06-.37.08.01.13-.01.15-.06.07.05.06.17.21.15-.04.06-.1.13,0,.15h0ZM31.32,35.5c.13.14-.06.32-.3.28.01-.19.11-.28.3-.28ZM28.67,28.69c-.07.25-.26.07-.36-.01.03-.17.32-.04.36.01ZM25.53,33.12h.29c.01.2-.04.33-.23.3-.05-.07-.07-.17-.06-.3ZM23.92,37.69c-.29-.59.63-.17,0,0ZM24.41,40.86c-.01.13.09.15.06.29-.27.07-.11-.27-.36-.23.03-.1.19-.05.29-.06h0ZM23.24,38.4c-.04.06-.08.11-.08.21-.06-.06-.16-.08-.29-.08.05-.06.09-.13,0-.15.02-.08.15-.04.15-.15.1.03.11.13.22.16h0ZM21.68,31.99c-.09.08-.07.15.06.15.06.24-.2.15-.23.28-.27-.06-.1-.49.17-.43ZM17.1,44.95c0,.3.05.45.27.67-.04.25-.28.5-.1.58-.04.08-.17.07-.15.22-.7-.07-.83.25-1.61-.05-.26-.64.08-1.14.63-1.37.66.36.79-.16,1.25-.25.02.19-.11.24-.3.21h0ZM20.71,44.41c-.01-.06.03-.07.08-.07-.15-.15-.15-.08,0-.22.02-.06-.03-.06-.07-.07.15-.11.32.06.59.09-.06.28-.38.37-.6.27h0ZM19.91,39.46c.03-.29.22.06.29-.14.06-.01.06.03.06.08v.15c-.23-.09-.2.01-.36-.08h0ZM20.13,36.99c-.01.16-.19.15-.37.13-.03-.15.06-.19.09-.29.11.04.06.24.29.16h0ZM19.23,35.5c.11-.19.49-.03.36.23h-.29c0-.11.02-.22-.07-.23ZM19.12,34.54c.22.06.14.06.37.01-.01.23-.45.29-.37-.01ZM18.74,34.83c.11.01.21.02.22-.07.11.04.06.24.29.15-.15.12-.27.26-.52.28-.04-.23-.05-.14.01-.37h0ZM20.05,37.52c.07.16.23.56.19.89-1.25.67-1.3-1-.19-.89ZM19.7,41.46c-.17.02-.29-.02-.36-.08-.04-.28.48-.14.36.08ZM19.01,44.95c-.32.17.09.28.21.16.12.1.11.33.2.45-.01-.37.47.52.65.39.12.05.04.17-.08.14-.01.06.03.07.07.08-.02.08-.15.04-.15.14-.12-.08-.17-.2-.06-.3-.09.03-.19.13-.08.15-.1.16-.33-.24-.06-.3-.13-.21-.37-.13-.23.14-.53.01-1.16-.45-.7-1.12.06.04.11.08.22.08h0ZM18.31,44.05c.01.12-.13.19,0,.21-.08.21-.27.01-.3.15-.08-.02-.03-.08,0-.08-.03-.07-.06-.13-.14-.15.01-.19.25-.14.45-.13ZM17.85,44.69c-.06.2.14.15.13.29.02-.2.4-.29.67-.2-.03.1-.13.11-.15.22-.11-.04-.18-.11-.29-.15.01.23-.01.11-.08.44.13,0,.15-.09.29-.06-.02.19.1.24.21.29-.53.1-.24.47-.74.2.22-.25.1-.31.09-.65-.23-.1-.06.23-.29.13.04-.15-.1-.14-.22-.15.05-.06.1-.13,0-.15.12-.08.19-.2.38-.21h0ZM16.17,39.73c.27-.07.23.16.36.24-.03.12-.23-.08-.3.14-.16-.11-.1-.19-.06-.37h0ZM15.32,38.74c.11.04.18.11.29.15-.11.17-.19.1-.37.06-.02-.12.08-.12.08-.21ZM14.88,41.29c.15-.03.19.06.29.09v-.15c.22.04-.07.15,0,.29-.14-.04-.31-.04-.28-.23ZM15.42,42.63h.29c-.01.1-.13.07-.22.08.08.1.02.11,0,.22-.13-.07-.21-.19-.36-.24.11-.32.31.33.29-.06ZM14.67,42.97c.31.11.27.02.23-.29.34.04.11.37.13.59-.24.01-.35-.1-.36-.31ZM13.78,40.96c.13-.02.13.06.14.15.06.01.07-.03.08-.06.11.03-.07.13.07.15-.06.21-.15-.08-.29-.01.04.07.17.08.14.22-.26,0-.31-.18-.5-.23.08-.13.34-.04.37-.21h0ZM15.14,49.2c.17-.02.28.02.36.09-.03.15-.27.06-.3.21-.11-.07.02-.11-.06-.3ZM11.74,43.09c.33.01.34.53-.01.29v-.29ZM6.61,55.09c-.1.1-.22.04-.36-.08.02-.09.08-.04.08,0,.06-.05.11-.13.15-.22.27.01,0,.28.14.29h0ZM8.1,49.58c-.2-.08.03-.31.01-.44.26.06.1.34-.01.44ZM8.86,50.01c-.08-.01-.13.01-.15.06-.09-.01-.06-.13-.07-.22-.06-.01-.06.03-.07.06-.23-.08.16-.11.15-.22.13.03.17.14.14.3h0ZM8.75,47.41c-.16-.06-.29-.16-.29-.38.1.11.34.1.29.38ZM9.32,48.01v-.43c-.03-.26.1.39.21.44-.03.1-.09-.03-.21,0h0ZM10.59,47.32c0,.16-.26.03-.37.06.09-.09.07-.15-.06-.15.16-.18.11-.16.08-.44.1-.03.15-.09.15-.22.1.02.07.15,0,.15.26.07-.1.27.21.3.06.14-.22.24-.01.29ZM11.67,48.01c-.36-.26-.61-.72-.62-1.12.2,0,.15.24.36.23-.2.36.25.51.26.89ZM11.28,46.24c-.22-.19-.51,0-.57-.24-.14.03-.07.29-.3.21-.18-.49.16-.56.17-.87-.29.05-.4-.25-.28-.38h.22c-.07.21.1.2.06.38.25-.04.27.13.29.31-.09-.01-.13,0-.15.06.01.06.07.08.06.15.12-.03.07-.22.3-.13-.09.32.24.25.2.52h0ZM11.31,45.44c-.14-.04-.04-.29-.28-.23v-.22c.18.03.31.1.44.16,0,.15-.2.09-.15.29h0ZM11.15,43.31c.31-.03.09.2.21.22.01.06-.03.07-.08.07h-.15v-.29ZM13.38,51.72c-.35,0-.56-.25-.42-.53.21-.06.19.11.36.09-.2.19.08.22.06.44ZM11.94,44.21c.09.1.38.15.29-.15.1.03.06.19.07.3-.22-.06-.1.25-.37.13.12-.14,0-.09,0-.29ZM12.83,45.92c.06.1.02.24-.01.43-.24.03-.26-.14-.51-.09,0-.45.47-.1.52-.34ZM14.13,53.57c-.04-.26.27-.11.31-.29.11.03-.07.13.06.15-.06.11-.24.1-.37.14ZM13.48,48.86c-.17.02-.28-.02-.36-.08.47-.3,1.57.1,1,.98-.25-.26-.58-.44-.63-.9h0ZM15.1,50.9c-.19.03-.36,0-.59.13-.05-.26.11-.27.1-.51.26.04.46.13.5.38ZM13.1,42.27c.27.31-.28.4-.6.34,0-.24.51-.03.6-.34Z" fill="#ca005d"/><path d="M64.21,39.32s.04,0,.06,0c.04-.08.13-.11.18-.15-.02-.05-.04-.1-.04-.16-.07.04-.39.18-.2.3Z" fill="#ca005d"/><path d="M55.29,33.54s-.06.06-.1.09c.07,0,.14-.01.18-.06-.02-.01-.04-.03-.08-.03Z" fill="#ca005d"/><path d="M88.95,101.02V23.98" fill="none" stroke="#ca005d" stroke-miterlimit="3.99" stroke-width="4.89"/><path d="M115.2,44.43v3.45h-2.73v-10.6h4.49c1.41,0,2.48.29,3.19.87.72.58,1.07,1.4,1.07,2.48s-.4,2.02-1.17,2.73c-.77.72-1.81,1.07-3.14,1.07h-1.71ZM115.2,39.24v3.19h.79c.98,0,1.63-.14,1.94-.43.31-.31.46-.75.46-1.33,0-.34-.11-.62-.33-.84-.2-.24-.45-.39-.74-.46-.29-.08-.84-.13-1.66-.13h-.46Z" fill="#ca005d"/><path d="M128.79,42.33h-.23l-.31-.08c-.26-.03-.53-.05-.82-.05-.68,0-1.3.1-1.86.31v5.36h-2.58v-7.99h2.58v1.17c.9-.8,1.77-1.2,2.63-1.2.22,0,.42.01.59.03v2.45Z" fill="#ca005d"/><path d="M134.04,48.13c-1.4,0-2.48-.37-3.24-1.12-.75-.77-1.12-1.8-1.12-3.12s.38-2.36,1.15-3.12c.77-.77,1.84-1.15,3.22-1.15s2.46.38,3.22,1.15c.77.77,1.15,1.81,1.15,3.12s-.38,2.35-1.15,3.12c-.75.75-1.83,1.12-3.22,1.12ZM135.75,43.89c0-1.65-.57-2.48-1.71-2.48s-1.71.83-1.71,2.48.57,2.45,1.74,2.45,1.69-.82,1.69-2.45Z" fill="#ca005d"/><path d="M148.03,46.96c0,1.34-.36,2.33-1.07,2.96-.7.64-1.83.97-3.37.97-1.06,0-2.07-.11-3.04-.33v-2.02h.31c.88.32,1.67.49,2.35.49.8,0,1.37-.14,1.71-.41.36-.26.54-.77.54-1.53v-.15c-.66.56-1.42.84-2.27.84-2.34,0-3.5-1.36-3.5-4.09,0-1.26.34-2.25,1.05-2.96.7-.72,1.56-1.07,2.58-1.07.82,0,1.53.2,2.15.59l.1-.36h2.48v7.07ZM145.45,45.35v-3.63c-.34-.11-.71-.18-1.1-.18-1.35,0-2.02.73-2.02,2.2,0,.77.13,1.3.41,1.61.29.31.72.46,1.28.46.49,0,.97-.15,1.43-.46Z" fill="#ca005d"/><path d="M156.23,42.33h-.23l-.31-.08c-.26-.03-.53-.05-.82-.05-.68,0-1.3.1-1.86.31v5.36h-2.58v-7.99h2.58v1.17c.9-.8,1.77-1.2,2.63-1.2.22,0,.42.01.59.03v2.45Z" fill="#ca005d"/><path d="M162.52,47.03c-.51.41-.96.69-1.35.84-.4.13-.86.2-1.4.2-.77,0-1.4-.23-1.92-.69-.51-.47-.77-1.08-.77-1.81,0-.92.36-1.61,1.07-2.07.72-.47,2.18-.77,4.39-.89v-.03c0-.41-.17-.7-.49-.89-.33-.19-.88-.28-1.66-.28-.55,0-1.34.19-2.38.56h-.26v-1.92c1.12-.27,2.18-.41,3.17-.41,1.44,0,2.49.23,3.14.69.66.45,1,1.14,1,2.09v5.44h-2.55v-.84ZM162.52,45.78v-1.66c-1.19.1-1.97.24-2.32.41-.34.15-.51.43-.51.84,0,.38.1.64.31.79.22.14.57.2,1.05.2.52,0,1.02-.19,1.48-.59Z" fill="#ca005d"/><path d="M175.25,42.21v5.67h-2.58v-3.98c0-.9-.09-1.49-.26-1.76-.15-.27-.5-.41-1.05-.41-.4,0-.86.17-1.38.49v5.67h-2.58v-7.99h2.58v.87c.92-.73,1.79-1.1,2.61-1.1,1.09,0,1.87.47,2.35,1.4,1.1-.93,2.08-1.4,2.91-1.4,1.75,0,2.63,1.01,2.63,3.01v5.21h-2.58v-3.98c0-.88-.08-1.46-.23-1.74-.14-.29-.5-.43-1.07-.43-.36,0-.81.17-1.35.49Z" fill="#ca005d"/><path d="M190.67,42.21v5.67h-2.58v-3.98c0-.9-.09-1.49-.26-1.76-.15-.27-.5-.41-1.05-.41-.4,0-.86.17-1.38.49v5.67h-2.58v-7.99h2.58v.87c.92-.73,1.79-1.1,2.61-1.1,1.09,0,1.87.47,2.35,1.4,1.1-.93,2.08-1.4,2.91-1.4,1.75,0,2.63,1.01,2.63,3.01v5.21h-2.58v-3.98c0-.88-.08-1.46-.23-1.74-.14-.29-.5-.43-1.07-.43-.36,0-.81.17-1.35.49Z" fill="#ca005d"/><path d="M203.1,47.03c-.51.41-.96.69-1.35.84-.4.13-.86.2-1.4.2-.77,0-1.4-.23-1.92-.69-.51-.47-.77-1.08-.77-1.81,0-.92.36-1.61,1.07-2.07.72-.47,2.18-.77,4.39-.89v-.03c0-.41-.17-.7-.49-.89-.33-.19-.88-.28-1.66-.28-.55,0-1.34.19-2.38.56h-.26v-1.92c1.12-.27,2.18-.41,3.17-.41,1.44,0,2.49.23,3.14.69.66.45,1,1.14,1,2.09v5.44h-2.55v-.84ZM203.1,45.78v-1.66c-1.19.1-1.97.24-2.32.41-.34.15-.51.43-.51.84,0,.38.1.64.31.79.22.14.57.2,1.05.2.52,0,1.02-.19,1.48-.59Z" fill="#ca005d"/><path d="M121.05,68.24h-1.81l-4.19-4.72-1.07,1.12v3.6h-1.4v-10.6h1.4v5.52l5.16-5.52h1.71l-4.75,4.98,4.95,5.62Z" fill="#ca005d"/><path d="M129.18,64.4h-5.85c0,.89.24,1.58.74,2.09.51.51,1.2.77,2.07.77,1.03,0,1.97-.32,2.81-.97h.08v1.46c-1.07.45-2.03.66-2.86.66-1.33,0-2.36-.36-3.09-1.07-.73-.72-1.1-1.72-1.1-3.04s.34-2.34,1.05-3.09c.72-.77,1.65-1.15,2.81-1.15,1.07,0,1.9.32,2.48.94.57.63.87,1.52.87,2.66v.74ZM127.87,63.38c0-1.48-.71-2.22-2.12-2.22-.7,0-1.27.22-1.71.64-.43.41-.66.94-.72,1.58h4.55Z" fill="#ca005d"/><path d="M135.33,68.16c-.6.15-1.14.23-1.61.23-1.65,0-2.48-.92-2.48-2.76v-4.21h-.92v-1.12h.92v-2.3h1.33v2.3h2.76v1.12h-2.76v3.63c0,.65.03,1.1.1,1.35.06.26.2.46.41.61.2.14.54.2,1,.2.36,0,.75-.08,1.2-.26h.05v1.2Z" fill="#ca005d"/><path d="M143.6,64.4h-5.85c0,.89.24,1.58.74,2.09.51.51,1.2.77,2.07.77,1.03,0,1.97-.32,2.81-.97h.08v1.46c-1.07.45-2.03.66-2.86.66-1.33,0-2.36-.36-3.09-1.07-.73-.72-1.1-1.72-1.1-3.04s.34-2.34,1.05-3.09c.72-.77,1.65-1.15,2.81-1.15,1.07,0,1.9.32,2.48.94.57.63.87,1.52.87,2.66v.74ZM142.3,63.38c0-1.48-.71-2.22-2.12-2.22-.7,0-1.27.22-1.71.64-.43.41-.66.94-.72,1.58h4.55Z" fill="#ca005d"/><path d="M152.28,68.24h-1.33v-4.52c0-.97-.13-1.61-.38-1.92s-.69-.46-1.3-.46c-.68,0-1.45.32-2.3.94v5.95h-1.33v-7.94h1.33v.87c.88-.73,1.77-1.1,2.68-1.1,1.75,0,2.63,1.01,2.63,3.01v5.16Z" fill="#ca005d"/><path d="M156.29,58.94h-1.51v-1.38h1.51v1.38ZM156.21,68.24h-1.35v-7.94h1.35v7.94Z" fill="#ca005d"/><path d="M165.5,68.24h-1.33v-4.52c0-.97-.13-1.61-.38-1.92s-.69-.46-1.3-.46c-.68,0-1.45.32-2.3.94v5.95h-1.33v-7.94h1.33v.87c.88-.73,1.77-1.1,2.68-1.1,1.75,0,2.63,1.01,2.63,3.01v5.16Z" fill="#ca005d"/><path d="M172.35,58.45h-.08l-.41-.1c-.31-.06-.57-.1-.79-.1-.56,0-.98.13-1.25.38-.26.24-.38.7-.38,1.38v.28h2.43v1.12h-2.38v6.82h-1.35v-6.82h-.89v-1.12h.89v-.28c0-.95.23-1.67.69-2.17.47-.51,1.16-.77,2.07-.77.47,0,.96.05,1.46.15v1.23Z" fill="#ca005d"/><path d="M176.29,68.47c-1.11,0-1.99-.37-2.66-1.12-.66-.75-1-1.77-1-3.09s.32-2.31.97-3.06c.66-.75,1.56-1.12,2.68-1.12s2.02.38,2.68,1.12c.66.75,1,1.77,1,3.06s-.33,2.34-1,3.09c-.66.75-1.56,1.12-2.68,1.12ZM176.29,61.21c-1.52,0-2.27,1.02-2.27,3.04,0,1.01.19,1.76.59,2.27.41.51.97.77,1.69.77s1.28-.24,1.69-.74c.41-.51.61-1.28.61-2.3,0-2.02-.77-3.04-2.3-3.04Z" fill="#ca005d"/><path d="M187,61.75h-.08l-.38-.08c-.27-.05-.56-.08-.87-.08-.73,0-1.5.33-2.3,1v5.64h-1.33v-7.94h1.33v1.17c.95-.78,1.84-1.17,2.66-1.17.31,0,.63.03.97.08v1.38Z" fill="#ca005d"/><path d="M199.86,68.24h-1.33v-4.52c0-1.03-.13-1.69-.38-1.97-.26-.27-.66-.41-1.23-.41-.63,0-1.38.33-2.25,1,.03.26.05.53.05.82v5.08h-1.33v-4.52c0-1.03-.13-1.69-.38-1.97-.24-.27-.65-.41-1.23-.41-.63,0-1.37.32-2.2.94v5.95h-1.33v-7.94h1.33v.87c.88-.73,1.74-1.1,2.58-1.1,1.07,0,1.81.43,2.22,1.28,1.02-.85,1.99-1.28,2.91-1.28,1.7,0,2.55,1.01,2.55,3.01v5.16Z" fill="#ca005d"/><path d="M208.62,68.24h-1.35v-.84c-.63.46-1.16.75-1.58.87-.43.13-.84.2-1.25.2-.73,0-1.35-.24-1.84-.72-.5-.47-.74-1.08-.74-1.81,0-.97.36-1.69,1.07-2.15s2.16-.73,4.34-.82v-.2c0-.49-.15-.87-.46-1.12s-.86-.38-1.66-.38c-.73,0-1.58.19-2.53.56h-.05v-1.38c.95-.24,1.81-.36,2.58-.36,1.23,0,2.11.23,2.66.69.54.46.82,1.15.82,2.07v5.39ZM207.27,66.27v-2.2c-1.77.07-2.89.25-3.35.54-.46.29-.69.7-.69,1.23,0,.92.56,1.38,1.69,1.38.78,0,1.56-.31,2.35-.94Z" fill="#ca005d"/><path d="M215.3,68.16c-.6.15-1.14.23-1.61.23-1.65,0-2.48-.92-2.48-2.76v-4.21h-.92v-1.12h.92v-2.3h1.33v2.3h2.76v1.12h-2.76v3.63c0,.65.03,1.1.1,1.35.06.26.2.46.41.61.2.14.54.2,1,.2.36,0,.75-.08,1.2-.26h.05v1.2Z" fill="#ca005d"/><path d="M218.36,58.94h-1.51v-1.38h1.51v1.38ZM218.29,68.24h-1.35v-7.94h1.35v7.94Z" fill="#ca005d"/><path d="M227.57,64.4h-5.85c0,.89.24,1.58.74,2.09.51.51,1.2.77,2.07.77,1.03,0,1.97-.32,2.81-.97h.08v1.46c-1.07.45-2.03.66-2.86.66-1.33,0-2.36-.36-3.09-1.07-.73-.72-1.1-1.72-1.1-3.04s.34-2.34,1.05-3.09c.72-.77,1.65-1.15,2.81-1.15,1.07,0,1.9.32,2.48.94.57.63.87,1.52.87,2.66v.74ZM226.27,63.38c0-1.48-.71-2.22-2.12-2.22-.7,0-1.27.22-1.71.64-.43.41-.66.94-.72,1.58h4.55Z" fill="#ca005d"/><path d="M121.05,88.59h-1.81l-4.19-4.72-1.07,1.12v3.6h-1.4v-10.6h1.4v5.52l5.16-5.52h1.71l-4.75,4.98,4.95,5.62Z" fill="#ca005d"/><path d="M129.18,84.76h-5.85c0,.89.24,1.58.74,2.09.51.51,1.2.77,2.07.77,1.03,0,1.97-.32,2.81-.97h.08v1.46c-1.07.45-2.03.66-2.86.66-1.33,0-2.36-.36-3.09-1.07-.73-.72-1.1-1.72-1.1-3.04s.34-2.34,1.05-3.09c.72-.77,1.65-1.15,2.81-1.15,1.07,0,1.9.32,2.48.94.57.63.87,1.52.87,2.66v.74ZM127.87,83.74c0-1.48-.71-2.22-2.12-2.22-.7,0-1.27.22-1.71.64-.43.41-.66.94-.72,1.58h4.55Z" fill="#ca005d"/><path d="M136.17,82.11h-.08l-.38-.08c-.27-.05-.56-.08-.87-.08-.73,0-1.5.33-2.3,1v5.64h-1.33v-7.94h1.33v1.17c.95-.78,1.84-1.17,2.66-1.17.31,0,.63.03.97.08v1.38Z" fill="#ca005d"/><path d="M144.08,88.59h-1.33v-4.52c0-.97-.13-1.61-.38-1.92s-.69-.46-1.3-.46c-.68,0-1.45.32-2.3.94v5.95h-1.33v-7.94h1.33v.87c.88-.73,1.77-1.1,2.68-1.1,1.75,0,2.63,1.01,2.63,3.01v5.16Z" fill="#ca005d"/><path d="M153.09,87.7c0,1.33-.31,2.3-.92,2.94-.6.64-1.53.97-2.81.97-.82,0-1.63-.11-2.43-.33v-1.38h.08c.92.34,1.74.51,2.45.51.8,0,1.38-.18,1.74-.54.37-.34.56-.89.56-1.63v-.72c-.45.33-.84.56-1.2.72s-.82.23-1.38.23c-.96,0-1.71-.34-2.27-1.02-.55-.68-.82-1.65-.82-2.91s.34-2.28,1.05-3.01c.7-.73,1.52-1.1,2.48-1.1.75,0,1.46.19,2.15.56l.08-.33h1.25v7.05ZM151.77,86.4v-4.32c-.65-.31-1.29-.46-1.92-.46-.75,0-1.34.26-1.76.77-.41.5-.61,1.2-.61,2.12s.16,1.63.49,2.07c.32.45.84.66,1.56.66.78,0,1.53-.28,2.25-.84Z" fill="#ca005d"/><path d="M162.38,84.76h-5.85c0,.89.24,1.58.74,2.09.51.51,1.2.77,2.07.77,1.03,0,1.97-.32,2.81-.97h.08v1.46c-1.07.45-2.03.66-2.86.66-1.33,0-2.36-.36-3.09-1.07-.73-.72-1.1-1.72-1.1-3.04s.34-2.34,1.05-3.09c.72-.77,1.65-1.15,2.81-1.15,1.07,0,1.9.32,2.48.94.57.63.87,1.52.87,2.66v.74ZM161.07,83.74c0-1.48-.71-2.22-2.12-2.22-.7,0-1.27.22-1.71.64-.43.41-.66.94-.72,1.58h4.55Z" fill="#ca005d"/><path d="M170.85,87.7c0,1.33-.31,2.3-.92,2.94-.6.64-1.53.97-2.81.97-.82,0-1.63-.11-2.43-.33v-1.38h.08c.92.34,1.74.51,2.45.51.8,0,1.38-.18,1.74-.54.37-.34.56-.89.56-1.63v-.72c-.45.33-.84.56-1.2.72s-.82.23-1.38.23c-.96,0-1.71-.34-2.27-1.02-.55-.68-.82-1.65-.82-2.91s.34-2.28,1.05-3.01c.7-.73,1.52-1.1,2.48-1.1.75,0,1.46.19,2.15.56l.08-.33h1.25v7.05ZM169.52,86.4v-4.32c-.65-.31-1.29-.46-1.92-.46-.75,0-1.34.26-1.76.77-.41.5-.61,1.2-.61,2.12s.16,1.63.49,2.07c.32.45.84.66,1.56.66.78,0,1.53-.28,2.25-.84Z" fill="#ca005d"/><path d="M180.14,84.76h-5.85c0,.89.24,1.58.74,2.09.51.51,1.2.77,2.07.77,1.03,0,1.97-.32,2.81-.97h.08v1.46c-1.07.45-2.03.66-2.86.66-1.33,0-2.36-.36-3.09-1.07-.73-.72-1.1-1.72-1.1-3.04s.34-2.34,1.05-3.09c.72-.77,1.65-1.15,2.81-1.15,1.07,0,1.9.32,2.48.94.57.63.87,1.52.87,2.66v.74ZM178.83,83.74c0-1.48-.71-2.22-2.12-2.22-.7,0-1.27.22-1.71.64-.43.41-.66.94-.72,1.58h4.55Z" fill="#ca005d"/><path d="M189.05,80.65l-3.22,7.94h-1.35l-3.19-7.94h1.46l2.45,6.31,2.45-6.31h1.4Z" fill="#ca005d"/><path d="M197.44,84.76h-5.85c0,.89.24,1.58.74,2.09.51.51,1.2.77,2.07.77,1.03,0,1.97-.32,2.81-.97h.08v1.46c-1.07.45-2.03.66-2.86.66-1.33,0-2.36-.36-3.09-1.07-.73-.72-1.1-1.72-1.1-3.04s.34-2.34,1.05-3.09c.72-.77,1.65-1.15,2.81-1.15,1.07,0,1.9.32,2.48.94.57.63.87,1.52.87,2.66v.74ZM196.14,83.74c0-1.48-.71-2.22-2.12-2.22-.7,0-1.27.22-1.71.64-.43.41-.66.94-.72,1.58h4.55Z" fill="#ca005d"/><path d="M206.12,88.59h-1.33v-4.52c0-.97-.13-1.61-.38-1.92s-.69-.46-1.3-.46c-.68,0-1.45.32-2.3.94v5.95h-1.33v-7.94h1.33v.87c.88-.73,1.77-1.1,2.68-1.1,1.75,0,2.63,1.01,2.63,3.01v5.16Z" fill="#ca005d"/><path d="M208.17,88.11v-1.51h.05c.95.7,1.92,1.05,2.91,1.05,1.26,0,1.89-.39,1.89-1.17,0-.39-.14-.66-.41-.82-.26-.15-.81-.31-1.66-.46-1.12-.2-1.86-.49-2.22-.87-.36-.37-.54-.86-.54-1.46,0-.7.29-1.28.87-1.74.57-.46,1.36-.69,2.35-.69.93,0,1.82.2,2.66.59v1.46h-.08c-.86-.61-1.75-.92-2.68-.92-.5,0-.91.1-1.25.28-.33.19-.49.47-.49.84s.13.65.38.82c.27.17.84.34,1.71.51.72.14,1.23.28,1.56.43.34.14.61.36.82.66.22.31.33.7.33,1.17,0,.73-.31,1.34-.92,1.81-.6.46-1.42.69-2.45.69-.97,0-1.92-.23-2.83-.69Z" fill="#ca005d"/><path d="M229.87,78l-3.86,10.6h-1.89l-3.86-10.6h1.51l3.35,9.32,3.32-9.32h1.43Z" fill="#ca005d"/><path d="M238.02,84.76h-5.85c0,.89.24,1.58.74,2.09.51.51,1.2.77,2.07.77,1.03,0,1.97-.32,2.81-.97h.08v1.46c-1.07.45-2.03.66-2.86.66-1.33,0-2.36-.36-3.09-1.07-.73-.72-1.1-1.72-1.1-3.04s.34-2.34,1.05-3.09c.72-.77,1.65-1.15,2.81-1.15,1.07,0,1.9.32,2.48.94.57.63.87,1.52.87,2.66v.74ZM236.72,83.74c0-1.48-.71-2.22-2.12-2.22-.7,0-1.27.22-1.71.64-.43.41-.66.94-.72,1.58h4.55Z" fill="#ca005d"/><path d="M245.01,82.11h-.08l-.38-.08c-.27-.05-.56-.08-.87-.08-.73,0-1.5.33-2.3,1v5.64h-1.33v-7.94h1.33v1.17c.95-.78,1.84-1.17,2.66-1.17.31,0,.63.03.97.08v1.38Z" fill="#ca005d"/><path d="M247.61,88.24l-.08.36h-1.25v-11.08h1.33v3.96c.83-.7,1.71-1.05,2.63-1.05s1.67.37,2.22,1.1c.54.72.82,1.73.82,3.04s-.33,2.29-1,3.09c-.66.79-1.5,1.17-2.5,1.17-.77,0-1.49-.2-2.17-.59ZM247.61,82.59v4.57c.64.31,1.28.46,1.92.46,1.58,0,2.38-1.01,2.38-3.04,0-1.92-.66-2.89-1.99-2.89-.75,0-1.52.3-2.3.89Z" fill="#ca005d"/><path d="M262,84.76h-5.85c0,.89.24,1.58.74,2.09.51.51,1.2.77,2.07.77,1.03,0,1.97-.32,2.81-.97h.08v1.46c-1.07.45-2.03.66-2.86.66-1.33,0-2.36-.36-3.09-1.07-.73-.72-1.1-1.72-1.1-3.04s.34-2.34,1.05-3.09c.72-.77,1.65-1.15,2.81-1.15,1.07,0,1.9.32,2.48.94.57.63.87,1.52.87,2.66v.74ZM260.69,83.74c0-1.48-.71-2.22-2.12-2.22-.7,0-1.27.22-1.71.64-.43.41-.66.94-.72,1.58h4.55Z" fill="#ca005d"/><path d="M268.15,88.52c-.6.15-1.14.23-1.61.23-1.65,0-2.48-.92-2.48-2.76v-4.21h-.92v-1.12h.92v-2.3h1.33v2.3h2.76v1.12h-2.76v3.63c0,.65.03,1.1.1,1.35.06.26.2.46.41.61.2.14.54.2,1,.2.36,0,.75-.08,1.2-.26h.05v1.2Z" fill="#ca005d"/><path d="M276.42,84.76h-5.85c0,.89.24,1.58.74,2.09.51.51,1.2.77,2.07.77,1.03,0,1.97-.32,2.81-.97h.08v1.46c-1.07.45-2.03.66-2.86.66-1.33,0-2.36-.36-3.09-1.07-.73-.72-1.1-1.72-1.1-3.04s.34-2.34,1.05-3.09c.72-.77,1.65-1.15,2.81-1.15,1.07,0,1.9.32,2.48.94.57.63.87,1.52.87,2.66v.74ZM275.12,83.74c0-1.48-.71-2.22-2.12-2.22-.7,0-1.27.22-1.71.64-.43.41-.66.94-.72,1.58h4.55Z" fill="#ca005d"/><path d="M283.42,82.11h-.08l-.38-.08c-.27-.05-.56-.08-.87-.08-.73,0-1.5.33-2.3,1v5.64h-1.33v-7.94h1.33v1.17c.95-.78,1.84-1.17,2.66-1.17.31,0,.63.03.97.08v1.38Z" fill="#ca005d"/><path d="M291.32,84.76h-5.85c0,.89.24,1.58.74,2.09.51.51,1.2.77,2.07.77,1.03,0,1.97-.32,2.81-.97h.08v1.46c-1.07.45-2.03.66-2.86.66-1.33,0-2.36-.36-3.09-1.07-.73-.72-1.1-1.72-1.1-3.04s.34-2.34,1.05-3.09c.72-.77,1.65-1.15,2.81-1.15,1.07,0,1.9.32,2.48.94.57.63.87,1.52.87,2.66v.74ZM290.02,83.74c0-1.48-.71-2.22-2.12-2.22-.7,0-1.27.22-1.71.64-.43.41-.66.94-.72,1.58h4.55Z" fill="#ca005d"/><path d="M300,88.59h-1.33v-4.52c0-.97-.13-1.61-.38-1.92s-.69-.46-1.3-.46c-.68,0-1.45.32-2.3.94v5.95h-1.33v-7.94h1.33v.87c.88-.73,1.77-1.1,2.68-1.1,1.75,0,2.63,1.01,2.63,3.01v5.16Z" fill="#ca005d"/></svg></svg></svg>