<svg xmlns="http://www.w3.org/2000/svg" version="1.1" viewBox="-5.0 -10.0 110.0 135.0">
 <path d="m73.336 20.359v-1.7383c1.9688-0.40234 3.457-2.1484 3.457-4.2344v-3.8047c0-0.66797-0.54297-1.2109-1.2109-1.2109l-51.168 0.003906c-0.66797 0-1.2109 0.54297-1.2109 1.2109v3.8047c0 2.0859 1.4883 3.832 3.457 4.2344v1.7383c0 3.4375 1.1914 6.8008 3.3555 9.4688l14.145 17.449c1.2773 1.5781 1.2773 3.8672 0 5.4453l-14.145 17.449c-2.1641 2.6719-3.3555 6.0312-3.3555 9.4727v1.7383c-1.9688 0.40234-3.457 2.1484-3.457 4.2344v3.8047c0 0.66797 0.54297 1.2109 1.2109 1.2109h51.172c0.66797 0 1.2109-0.54297 1.2109-1.2109v-3.8047c0-2.0859-1.4883-3.832-3.457-4.2344v-1.7383c0-3.4375-1.1914-6.8008-3.3555-9.4688l-14.145-17.449c-1.2773-1.5781-1.2773-3.8672 0-5.4414 0.003906-0.003906 0.011718-0.011718 0.011718-0.015624l14.133-17.434c2.1641-2.6719 3.3555-6.0312 3.3555-9.4727zm-47.711-5.9727v-2.5938h48.75v2.5938c0 1.0469-0.85156 1.9023-1.9023 1.9023h-44.945c-1.0469 0-1.9023-0.85156-1.9023-1.9023zm48.75 71.223v2.5938h-48.75v-2.5938c0-1.0469 0.85156-1.9023 1.9023-1.9023h44.945c1.0469 0 1.9023 0.85156 1.9023 1.9023zm-3.457-5.9727v1.6484h-41.836v-1.6484c0-2.7617 0.92578-5.457 2.5977-7.6484 1.8867-0.5 10.363-2.6211 18.32-2.6211s16.434 2.1211 18.32 2.6211c1.6719 2.1914 2.5977 4.8906 2.5977 7.6484zm-5.0859-10.746c-3.7188-0.82812-9.8438-1.9453-15.832-1.9453-5.9922 0-12.113 1.1172-15.832 1.9453l11.875-14.648c1.0781-1.3281 1.5664-2.9805 1.4805-4.6094 0.72656 0.26953 1.5547 0.44922 2.4766 0.44922 0.92578 0 1.7539-0.17969 2.4766-0.44922-0.085937 1.6289 0.40234 3.2812 1.4805 4.6094zm-11.883-23.133c-0.015625 0.019532-1.5625 1.9023-3.9531 1.9023s-3.9375-1.8828-3.9531-1.9023c-0.003907-0.003906-0.003907-0.003906-0.007813-0.007812l-11-13.574c2.4141-0.84375 7.7852-2.1016 14.574 0.17578 3.7266 1.25 7.0977 1.6484 9.8789 1.6484 1.6406 0 3.0664-0.14062 4.2461-0.32031l-9.7852 12.07c-0.003907 0.003906-0.003907 0.003906-0.007813 0.007812zm12.25-15.109c-1.3867 0.44141-7.7031 2.1367-15.816-0.58594-8.2773-2.7773-14.652-0.80859-16.953 0.13281l-1.5312-1.8906c-1.8164-2.2383-2.8164-5.0625-2.8164-7.9453v-1.6484h41.836v1.6484c0 2.8828-1 5.707-2.8164 7.9453z"/>
<text x="0.0" y="117.5" font-size="5.0" font-weight="bold" font-family="Arbeit Regular, Helvetica, Arial-Unicode, Arial, Sans-serif" fill="#000000">Created by kusuma potter</text><text x="0.0" y="122.5" font-size="5.0" font-weight="bold" font-family="Arbeit Regular, Helvetica, Arial-Unicode, Arial, Sans-serif" fill="#000000">from Noun Project</text></svg>